<?xml version="1.0" encoding="utf-8" standalone="no"?>
<!DOCTYPE svg PUBLIC "-//W3C//DTD SVG 1.1//EN"
  "http://www.w3.org/Graphics/SVG/1.1/DTD/svg11.dtd">
<!-- Created with matplotlib (https://matplotlib.org/) -->
<svg height="351.985313pt" version="1.1" viewBox="0 0 712.125312 351.985313" width="712.125312pt" xmlns="http://www.w3.org/2000/svg" xmlns:xlink="http://www.w3.org/1999/xlink">
 <defs>
  <style type="text/css">
*{stroke-linecap:butt;stroke-linejoin:round;}
  </style>
 </defs>
 <g id="figure_1">
  <g id="patch_1">
   <path d="M 0 351.985313 
L 712.125312 351.985313 
L 712.125312 0 
L 0 0 
z
" style="fill:#ffffff;"/>
  </g>
  <g id="axes_1">
   <g id="patch_2">
    <path d="M 47.045313 315.255625 
L 370.585313 315.255625 
L 370.585313 21.935625 
L 47.045313 21.935625 
z
" style="fill:#ffffff;"/>
   </g>
   <g id="matplotlib.axis_1">
    <g id="xtick_1">
     <g id="line2d_1">
      <path clip-path="url(#p8178c48b91)" d="M 61.751676 315.255625 
L 61.751676 21.935625 
" style="fill:none;stroke:#cccccc;stroke-linecap:round;stroke-width:0.8;"/>
     </g>
     <g id="text_1">
      <!-- 0 -->
      <defs>
       <path d="M 4.15625 35.296875 
Q 4.15625 48 6.765625 55.734375 
Q 9.375 63.484375 14.515625 67.671875 
Q 19.671875 71.875 27.484375 71.875 
Q 33.25 71.875 37.59375 69.546875 
Q 41.9375 67.234375 44.765625 62.859375 
Q 47.609375 58.5 49.21875 52.21875 
Q 50.828125 45.953125 50.828125 35.296875 
Q 50.828125 22.703125 48.234375 14.96875 
Q 45.65625 7.234375 40.5 3 
Q 35.359375 -1.21875 27.484375 -1.21875 
Q 17.140625 -1.21875 11.234375 6.203125 
Q 4.15625 15.140625 4.15625 35.296875 
z
M 13.1875 35.296875 
Q 13.1875 17.671875 17.3125 11.828125 
Q 21.4375 6 27.484375 6 
Q 33.546875 6 37.671875 11.859375 
Q 41.796875 17.71875 41.796875 35.296875 
Q 41.796875 52.984375 37.671875 58.78125 
Q 33.546875 64.59375 27.390625 64.59375 
Q 21.34375 64.59375 17.71875 59.46875 
Q 13.1875 52.9375 13.1875 35.296875 
z
" id="ArialMT-48"/>
      </defs>
      <g style="fill:#262626;" transform="translate(58.971207 329.413438)scale(0.1 -0.1)">
       <use xlink:href="#ArialMT-48"/>
      </g>
     </g>
    </g>
    <g id="xtick_2">
     <g id="line2d_2">
      <path clip-path="url(#p8178c48b91)" d="M 106.429237 315.255625 
L 106.429237 21.935625 
" style="fill:none;stroke:#cccccc;stroke-linecap:round;stroke-width:0.8;"/>
     </g>
     <g id="text_2">
      <!-- 1 -->
      <defs>
       <path d="M 37.25 0 
L 28.46875 0 
L 28.46875 56 
Q 25.296875 52.984375 20.140625 49.953125 
Q 14.984375 46.921875 10.890625 45.40625 
L 10.890625 53.90625 
Q 18.265625 57.375 23.78125 62.296875 
Q 29.296875 67.234375 31.59375 71.875 
L 37.25 71.875 
z
" id="ArialMT-49"/>
      </defs>
      <g style="fill:#262626;" transform="translate(103.648768 329.413438)scale(0.1 -0.1)">
       <use xlink:href="#ArialMT-49"/>
      </g>
     </g>
    </g>
    <g id="xtick_3">
     <g id="line2d_3">
      <path clip-path="url(#p8178c48b91)" d="M 151.106797 315.255625 
L 151.106797 21.935625 
" style="fill:none;stroke:#cccccc;stroke-linecap:round;stroke-width:0.8;"/>
     </g>
     <g id="text_3">
      <!-- 2 -->
      <defs>
       <path d="M 50.34375 8.453125 
L 50.34375 0 
L 3.03125 0 
Q 2.9375 3.171875 4.046875 6.109375 
Q 5.859375 10.9375 9.828125 15.625 
Q 13.8125 20.3125 21.34375 26.46875 
Q 33.015625 36.03125 37.109375 41.625 
Q 41.21875 47.21875 41.21875 52.203125 
Q 41.21875 57.421875 37.46875 61 
Q 33.734375 64.59375 27.734375 64.59375 
Q 21.390625 64.59375 17.578125 60.78125 
Q 13.765625 56.984375 13.71875 50.25 
L 4.6875 51.171875 
Q 5.609375 61.28125 11.65625 66.578125 
Q 17.71875 71.875 27.9375 71.875 
Q 38.234375 71.875 44.234375 66.15625 
Q 50.25 60.453125 50.25 52 
Q 50.25 47.703125 48.484375 43.546875 
Q 46.734375 39.40625 42.65625 34.8125 
Q 38.578125 30.21875 29.109375 22.21875 
Q 21.1875 15.578125 18.9375 13.203125 
Q 16.703125 10.84375 15.234375 8.453125 
z
" id="ArialMT-50"/>
      </defs>
      <g style="fill:#262626;" transform="translate(148.326328 329.413438)scale(0.1 -0.1)">
       <use xlink:href="#ArialMT-50"/>
      </g>
     </g>
    </g>
    <g id="xtick_4">
     <g id="line2d_4">
      <path clip-path="url(#p8178c48b91)" d="M 195.784357 315.255625 
L 195.784357 21.935625 
" style="fill:none;stroke:#cccccc;stroke-linecap:round;stroke-width:0.8;"/>
     </g>
     <g id="text_4">
      <!-- 3 -->
      <defs>
       <path d="M 4.203125 18.890625 
L 12.984375 20.0625 
Q 14.5 12.59375 18.140625 9.296875 
Q 21.78125 6 27 6 
Q 33.203125 6 37.46875 10.296875 
Q 41.75 14.59375 41.75 20.953125 
Q 41.75 27 37.796875 30.921875 
Q 33.84375 34.859375 27.734375 34.859375 
Q 25.25 34.859375 21.53125 33.890625 
L 22.515625 41.609375 
Q 23.390625 41.5 23.921875 41.5 
Q 29.546875 41.5 34.03125 44.421875 
Q 38.53125 47.359375 38.53125 53.46875 
Q 38.53125 58.296875 35.25 61.46875 
Q 31.984375 64.65625 26.8125 64.65625 
Q 21.6875 64.65625 18.265625 61.421875 
Q 14.84375 58.203125 13.875 51.765625 
L 5.078125 53.328125 
Q 6.6875 62.15625 12.390625 67.015625 
Q 18.109375 71.875 26.609375 71.875 
Q 32.46875 71.875 37.390625 69.359375 
Q 42.328125 66.84375 44.9375 62.5 
Q 47.5625 58.15625 47.5625 53.265625 
Q 47.5625 48.640625 45.0625 44.828125 
Q 42.578125 41.015625 37.703125 38.765625 
Q 44.046875 37.3125 47.5625 32.6875 
Q 51.078125 28.078125 51.078125 21.140625 
Q 51.078125 11.765625 44.234375 5.25 
Q 37.40625 -1.265625 26.953125 -1.265625 
Q 17.53125 -1.265625 11.296875 4.34375 
Q 5.078125 9.96875 4.203125 18.890625 
z
" id="ArialMT-51"/>
      </defs>
      <g style="fill:#262626;" transform="translate(193.003889 329.413438)scale(0.1 -0.1)">
       <use xlink:href="#ArialMT-51"/>
      </g>
     </g>
    </g>
    <g id="xtick_5">
     <g id="line2d_5">
      <path clip-path="url(#p8178c48b91)" d="M 240.461918 315.255625 
L 240.461918 21.935625 
" style="fill:none;stroke:#cccccc;stroke-linecap:round;stroke-width:0.8;"/>
     </g>
     <g id="text_5">
      <!-- 4 -->
      <defs>
       <path d="M 32.328125 0 
L 32.328125 17.140625 
L 1.265625 17.140625 
L 1.265625 25.203125 
L 33.9375 71.578125 
L 41.109375 71.578125 
L 41.109375 25.203125 
L 50.78125 25.203125 
L 50.78125 17.140625 
L 41.109375 17.140625 
L 41.109375 0 
z
M 32.328125 25.203125 
L 32.328125 57.46875 
L 9.90625 25.203125 
z
" id="ArialMT-52"/>
      </defs>
      <g style="fill:#262626;" transform="translate(237.681449 329.413438)scale(0.1 -0.1)">
       <use xlink:href="#ArialMT-52"/>
      </g>
     </g>
    </g>
    <g id="xtick_6">
     <g id="line2d_6">
      <path clip-path="url(#p8178c48b91)" d="M 285.139478 315.255625 
L 285.139478 21.935625 
" style="fill:none;stroke:#cccccc;stroke-linecap:round;stroke-width:0.8;"/>
     </g>
     <g id="text_6">
      <!-- 5 -->
      <defs>
       <path d="M 4.15625 18.75 
L 13.375 19.53125 
Q 14.40625 12.796875 18.140625 9.390625 
Q 21.875 6 27.15625 6 
Q 33.5 6 37.890625 10.78125 
Q 42.28125 15.578125 42.28125 23.484375 
Q 42.28125 31 38.0625 35.34375 
Q 33.84375 39.703125 27 39.703125 
Q 22.75 39.703125 19.328125 37.765625 
Q 15.921875 35.84375 13.96875 32.765625 
L 5.71875 33.84375 
L 12.640625 70.609375 
L 48.25 70.609375 
L 48.25 62.203125 
L 19.671875 62.203125 
L 15.828125 42.96875 
Q 22.265625 47.46875 29.34375 47.46875 
Q 38.71875 47.46875 45.15625 40.96875 
Q 51.609375 34.46875 51.609375 24.265625 
Q 51.609375 14.546875 45.953125 7.46875 
Q 39.0625 -1.21875 27.15625 -1.21875 
Q 17.390625 -1.21875 11.203125 4.25 
Q 5.03125 9.71875 4.15625 18.75 
z
" id="ArialMT-53"/>
      </defs>
      <g style="fill:#262626;" transform="translate(282.359009 329.413438)scale(0.1 -0.1)">
       <use xlink:href="#ArialMT-53"/>
      </g>
     </g>
    </g>
    <g id="xtick_7">
     <g id="line2d_7">
      <path clip-path="url(#p8178c48b91)" d="M 329.817039 315.255625 
L 329.817039 21.935625 
" style="fill:none;stroke:#cccccc;stroke-linecap:round;stroke-width:0.8;"/>
     </g>
     <g id="text_7">
      <!-- 6 -->
      <defs>
       <path d="M 49.75 54.046875 
L 41.015625 53.375 
Q 39.84375 58.546875 37.703125 60.890625 
Q 34.125 64.65625 28.90625 64.65625 
Q 24.703125 64.65625 21.53125 62.3125 
Q 17.390625 59.28125 14.984375 53.46875 
Q 12.59375 47.65625 12.5 36.921875 
Q 15.671875 41.75 20.265625 44.09375 
Q 24.859375 46.4375 29.890625 46.4375 
Q 38.671875 46.4375 44.84375 39.96875 
Q 51.03125 33.5 51.03125 23.25 
Q 51.03125 16.5 48.125 10.71875 
Q 45.21875 4.9375 40.140625 1.859375 
Q 35.0625 -1.21875 28.609375 -1.21875 
Q 17.625 -1.21875 10.6875 6.859375 
Q 3.765625 14.9375 3.765625 33.5 
Q 3.765625 54.25 11.421875 63.671875 
Q 18.109375 71.875 29.4375 71.875 
Q 37.890625 71.875 43.28125 67.140625 
Q 48.6875 62.40625 49.75 54.046875 
z
M 13.875 23.1875 
Q 13.875 18.65625 15.796875 14.5 
Q 17.71875 10.359375 21.1875 8.171875 
Q 24.65625 6 28.46875 6 
Q 34.03125 6 38.03125 10.484375 
Q 42.046875 14.984375 42.046875 22.703125 
Q 42.046875 30.125 38.078125 34.390625 
Q 34.125 38.671875 28.125 38.671875 
Q 22.171875 38.671875 18.015625 34.390625 
Q 13.875 30.125 13.875 23.1875 
z
" id="ArialMT-54"/>
      </defs>
      <g style="fill:#262626;" transform="translate(327.03657 329.413438)scale(0.1 -0.1)">
       <use xlink:href="#ArialMT-54"/>
      </g>
     </g>
    </g>
    <g id="text_8">
     <!-- Time (years) -->
     <defs>
      <path d="M 25.921875 0 
L 25.921875 63.140625 
L 2.34375 63.140625 
L 2.34375 71.578125 
L 59.078125 71.578125 
L 59.078125 63.140625 
L 35.40625 63.140625 
L 35.40625 0 
z
" id="ArialMT-84"/>
      <path d="M 6.640625 61.46875 
L 6.640625 71.578125 
L 15.4375 71.578125 
L 15.4375 61.46875 
z
M 6.640625 0 
L 6.640625 51.859375 
L 15.4375 51.859375 
L 15.4375 0 
z
" id="ArialMT-105"/>
      <path d="M 6.59375 0 
L 6.59375 51.859375 
L 14.453125 51.859375 
L 14.453125 44.578125 
Q 16.890625 48.390625 20.9375 50.703125 
Q 25 53.03125 30.171875 53.03125 
Q 35.9375 53.03125 39.625 50.640625 
Q 43.3125 48.25 44.828125 43.953125 
Q 50.984375 53.03125 60.84375 53.03125 
Q 68.5625 53.03125 72.703125 48.75 
Q 76.859375 44.484375 76.859375 35.59375 
L 76.859375 0 
L 68.109375 0 
L 68.109375 32.671875 
Q 68.109375 37.9375 67.25 40.25 
Q 66.40625 42.578125 64.15625 43.984375 
Q 61.921875 45.40625 58.890625 45.40625 
Q 53.421875 45.40625 49.796875 41.765625 
Q 46.1875 38.140625 46.1875 30.125 
L 46.1875 0 
L 37.40625 0 
L 37.40625 33.6875 
Q 37.40625 39.546875 35.25 42.46875 
Q 33.109375 45.40625 28.21875 45.40625 
Q 24.515625 45.40625 21.359375 43.453125 
Q 18.21875 41.5 16.796875 37.734375 
Q 15.375 33.984375 15.375 26.90625 
L 15.375 0 
z
" id="ArialMT-109"/>
      <path d="M 42.09375 16.703125 
L 51.171875 15.578125 
Q 49.03125 7.625 43.21875 3.21875 
Q 37.40625 -1.171875 28.375 -1.171875 
Q 17 -1.171875 10.328125 5.828125 
Q 3.65625 12.84375 3.65625 25.484375 
Q 3.65625 38.578125 10.390625 45.796875 
Q 17.140625 53.03125 27.875 53.03125 
Q 38.28125 53.03125 44.875 45.953125 
Q 51.46875 38.875 51.46875 26.03125 
Q 51.46875 25.25 51.421875 23.6875 
L 12.75 23.6875 
Q 13.234375 15.140625 17.578125 10.59375 
Q 21.921875 6.0625 28.421875 6.0625 
Q 33.25 6.0625 36.671875 8.59375 
Q 40.09375 11.140625 42.09375 16.703125 
z
M 13.234375 30.90625 
L 42.1875 30.90625 
Q 41.609375 37.453125 38.875 40.71875 
Q 34.671875 45.796875 27.984375 45.796875 
Q 21.921875 45.796875 17.796875 41.75 
Q 13.671875 37.703125 13.234375 30.90625 
z
" id="ArialMT-101"/>
      <path id="ArialMT-32"/>
      <path d="M 23.390625 -21.046875 
Q 16.109375 -11.859375 11.078125 0.4375 
Q 6.0625 12.75 6.0625 25.921875 
Q 6.0625 37.546875 9.8125 48.1875 
Q 14.203125 60.546875 23.390625 72.796875 
L 29.6875 72.796875 
Q 23.78125 62.640625 21.875 58.296875 
Q 18.890625 51.5625 17.1875 44.234375 
Q 15.09375 35.109375 15.09375 25.875 
Q 15.09375 2.390625 29.6875 -21.046875 
z
" id="ArialMT-40"/>
      <path d="M 6.203125 -19.96875 
L 5.21875 -11.71875 
Q 8.109375 -12.5 10.25 -12.5 
Q 13.1875 -12.5 14.9375 -11.515625 
Q 16.703125 -10.546875 17.828125 -8.796875 
Q 18.65625 -7.46875 20.515625 -2.25 
Q 20.75 -1.515625 21.296875 -0.09375 
L 1.609375 51.859375 
L 11.078125 51.859375 
L 21.875 21.828125 
Q 23.96875 16.109375 25.640625 9.8125 
Q 27.15625 15.875 29.25 21.625 
L 40.328125 51.859375 
L 49.125 51.859375 
L 29.390625 -0.875 
Q 26.21875 -9.421875 24.46875 -12.640625 
Q 22.125 -17 19.09375 -19.015625 
Q 16.0625 -21.046875 11.859375 -21.046875 
Q 9.328125 -21.046875 6.203125 -19.96875 
z
" id="ArialMT-121"/>
      <path d="M 40.4375 6.390625 
Q 35.546875 2.25 31.03125 0.53125 
Q 26.515625 -1.171875 21.34375 -1.171875 
Q 12.796875 -1.171875 8.203125 3 
Q 3.609375 7.171875 3.609375 13.671875 
Q 3.609375 17.484375 5.34375 20.625 
Q 7.078125 23.78125 9.890625 25.6875 
Q 12.703125 27.59375 16.21875 28.5625 
Q 18.796875 29.25 24.03125 29.890625 
Q 34.671875 31.15625 39.703125 32.90625 
Q 39.75 34.71875 39.75 35.203125 
Q 39.75 40.578125 37.25 42.78125 
Q 33.890625 45.75 27.25 45.75 
Q 21.046875 45.75 18.09375 43.578125 
Q 15.140625 41.40625 13.71875 35.890625 
L 5.125 37.0625 
Q 6.296875 42.578125 8.984375 45.96875 
Q 11.671875 49.359375 16.75 51.1875 
Q 21.828125 53.03125 28.515625 53.03125 
Q 35.15625 53.03125 39.296875 51.46875 
Q 43.453125 49.90625 45.40625 47.53125 
Q 47.359375 45.171875 48.140625 41.546875 
Q 48.578125 39.3125 48.578125 33.453125 
L 48.578125 21.734375 
Q 48.578125 9.46875 49.140625 6.21875 
Q 49.703125 2.984375 51.375 0 
L 42.1875 0 
Q 40.828125 2.734375 40.4375 6.390625 
z
M 39.703125 26.03125 
Q 34.90625 24.078125 25.34375 22.703125 
Q 19.921875 21.921875 17.671875 20.9375 
Q 15.4375 19.96875 14.203125 18.09375 
Q 12.984375 16.21875 12.984375 13.921875 
Q 12.984375 10.40625 15.640625 8.0625 
Q 18.3125 5.71875 23.4375 5.71875 
Q 28.515625 5.71875 32.46875 7.9375 
Q 36.421875 10.15625 38.28125 14.015625 
Q 39.703125 17 39.703125 22.796875 
z
" id="ArialMT-97"/>
      <path d="M 6.5 0 
L 6.5 51.859375 
L 14.40625 51.859375 
L 14.40625 44 
Q 17.4375 49.515625 20 51.265625 
Q 22.5625 53.03125 25.640625 53.03125 
Q 30.078125 53.03125 34.671875 50.203125 
L 31.640625 42.046875 
Q 28.421875 43.953125 25.203125 43.953125 
Q 22.3125 43.953125 20.015625 42.21875 
Q 17.71875 40.484375 16.75 37.40625 
Q 15.28125 32.71875 15.28125 27.15625 
L 15.28125 0 
z
" id="ArialMT-114"/>
      <path d="M 3.078125 15.484375 
L 11.765625 16.84375 
Q 12.5 11.625 15.84375 8.84375 
Q 19.1875 6.0625 25.203125 6.0625 
Q 31.25 6.0625 34.171875 8.515625 
Q 37.109375 10.984375 37.109375 14.3125 
Q 37.109375 17.28125 34.515625 19 
Q 32.71875 20.171875 25.53125 21.96875 
Q 15.875 24.421875 12.140625 26.203125 
Q 8.40625 27.984375 6.46875 31.125 
Q 4.546875 34.28125 4.546875 38.09375 
Q 4.546875 41.546875 6.125 44.5 
Q 7.71875 47.46875 10.453125 49.421875 
Q 12.5 50.921875 16.03125 51.96875 
Q 19.578125 53.03125 23.640625 53.03125 
Q 29.734375 53.03125 34.34375 51.265625 
Q 38.96875 49.515625 41.15625 46.5 
Q 43.359375 43.5 44.1875 38.484375 
L 35.59375 37.3125 
Q 35.015625 41.3125 32.203125 43.546875 
Q 29.390625 45.796875 24.265625 45.796875 
Q 18.21875 45.796875 15.625 43.796875 
Q 13.03125 41.796875 13.03125 39.109375 
Q 13.03125 37.40625 14.109375 36.03125 
Q 15.1875 34.625 17.484375 33.6875 
Q 18.796875 33.203125 25.25 31.453125 
Q 34.578125 28.953125 38.25 27.359375 
Q 41.9375 25.78125 44.03125 22.75 
Q 46.140625 19.734375 46.140625 15.234375 
Q 46.140625 10.84375 43.578125 6.953125 
Q 41.015625 3.078125 36.171875 0.953125 
Q 31.34375 -1.171875 25.25 -1.171875 
Q 15.140625 -1.171875 9.84375 3.03125 
Q 4.546875 7.234375 3.078125 15.484375 
z
" id="ArialMT-115"/>
      <path d="M 12.359375 -21.046875 
L 6.0625 -21.046875 
Q 20.65625 2.390625 20.65625 25.875 
Q 20.65625 35.0625 18.5625 44.09375 
Q 16.890625 51.421875 13.921875 58.15625 
Q 12.015625 62.546875 6.0625 72.796875 
L 12.359375 72.796875 
Q 21.53125 60.546875 25.921875 48.1875 
Q 29.6875 37.546875 29.6875 25.921875 
Q 29.6875 12.75 24.625 0.4375 
Q 19.578125 -11.859375 12.359375 -21.046875 
z
" id="ArialMT-41"/>
     </defs>
     <g style="fill:#262626;" transform="translate(180.948125 342.680625)scale(0.1 -0.1)">
      <use xlink:href="#ArialMT-84"/>
      <use x="57.333984" xlink:href="#ArialMT-105"/>
      <use x="79.550781" xlink:href="#ArialMT-109"/>
      <use x="162.851562" xlink:href="#ArialMT-101"/>
      <use x="218.466797" xlink:href="#ArialMT-32"/>
      <use x="246.25" xlink:href="#ArialMT-40"/>
      <use x="279.550781" xlink:href="#ArialMT-121"/>
      <use x="329.550781" xlink:href="#ArialMT-101"/>
      <use x="385.166016" xlink:href="#ArialMT-97"/>
      <use x="440.78125" xlink:href="#ArialMT-114"/>
      <use x="474.082031" xlink:href="#ArialMT-115"/>
      <use x="524.082031" xlink:href="#ArialMT-41"/>
     </g>
    </g>
   </g>
   <g id="matplotlib.axis_2">
    <g id="ytick_1">
     <g id="line2d_8">
      <path clip-path="url(#p8178c48b91)" d="M 47.045313 287.65857 
L 370.585313 287.65857 
" style="fill:none;stroke:#cccccc;stroke-linecap:round;stroke-width:0.8;"/>
     </g>
     <g id="text_9">
      <!-- 0.55 -->
      <defs>
       <path d="M 9.078125 0 
L 9.078125 10.015625 
L 19.09375 10.015625 
L 19.09375 0 
z
" id="ArialMT-46"/>
      </defs>
      <g style="fill:#262626;" transform="translate(20.584375 291.237476)scale(0.1 -0.1)">
       <use xlink:href="#ArialMT-48"/>
       <use x="55.615234" xlink:href="#ArialMT-46"/>
       <use x="83.398438" xlink:href="#ArialMT-53"/>
       <use x="139.013672" xlink:href="#ArialMT-53"/>
      </g>
     </g>
    </g>
    <g id="ytick_2">
     <g id="line2d_9">
      <path clip-path="url(#p8178c48b91)" d="M 47.045313 230.707002 
L 370.585313 230.707002 
" style="fill:none;stroke:#cccccc;stroke-linecap:round;stroke-width:0.8;"/>
     </g>
     <g id="text_10">
      <!-- 0.60 -->
      <g style="fill:#262626;" transform="translate(20.584375 234.285909)scale(0.1 -0.1)">
       <use xlink:href="#ArialMT-48"/>
       <use x="55.615234" xlink:href="#ArialMT-46"/>
       <use x="83.398438" xlink:href="#ArialMT-54"/>
       <use x="139.013672" xlink:href="#ArialMT-48"/>
      </g>
     </g>
    </g>
    <g id="ytick_3">
     <g id="line2d_10">
      <path clip-path="url(#p8178c48b91)" d="M 47.045313 173.755435 
L 370.585313 173.755435 
" style="fill:none;stroke:#cccccc;stroke-linecap:round;stroke-width:0.8;"/>
     </g>
     <g id="text_11">
      <!-- 0.65 -->
      <g style="fill:#262626;" transform="translate(20.584375 177.334342)scale(0.1 -0.1)">
       <use xlink:href="#ArialMT-48"/>
       <use x="55.615234" xlink:href="#ArialMT-46"/>
       <use x="83.398438" xlink:href="#ArialMT-54"/>
       <use x="139.013672" xlink:href="#ArialMT-53"/>
      </g>
     </g>
    </g>
    <g id="ytick_4">
     <g id="line2d_11">
      <path clip-path="url(#p8178c48b91)" d="M 47.045313 116.803868 
L 370.585313 116.803868 
" style="fill:none;stroke:#cccccc;stroke-linecap:round;stroke-width:0.8;"/>
     </g>
     <g id="text_12">
      <!-- 0.70 -->
      <defs>
       <path d="M 4.734375 62.203125 
L 4.734375 70.65625 
L 51.078125 70.65625 
L 51.078125 63.8125 
Q 44.234375 56.546875 37.515625 44.484375 
Q 30.8125 32.421875 27.15625 19.671875 
Q 24.515625 10.6875 23.78125 0 
L 14.75 0 
Q 14.890625 8.453125 18.0625 20.40625 
Q 21.234375 32.375 27.171875 43.484375 
Q 33.109375 54.59375 39.796875 62.203125 
z
" id="ArialMT-55"/>
      </defs>
      <g style="fill:#262626;" transform="translate(20.584375 120.382775)scale(0.1 -0.1)">
       <use xlink:href="#ArialMT-48"/>
       <use x="55.615234" xlink:href="#ArialMT-46"/>
       <use x="83.398438" xlink:href="#ArialMT-55"/>
       <use x="139.013672" xlink:href="#ArialMT-48"/>
      </g>
     </g>
    </g>
    <g id="ytick_5">
     <g id="line2d_12">
      <path clip-path="url(#p8178c48b91)" d="M 47.045313 59.852301 
L 370.585313 59.852301 
" style="fill:none;stroke:#cccccc;stroke-linecap:round;stroke-width:0.8;"/>
     </g>
     <g id="text_13">
      <!-- 0.75 -->
      <g style="fill:#262626;" transform="translate(20.584375 63.431207)scale(0.1 -0.1)">
       <use xlink:href="#ArialMT-48"/>
       <use x="55.615234" xlink:href="#ArialMT-46"/>
       <use x="83.398438" xlink:href="#ArialMT-55"/>
       <use x="139.013672" xlink:href="#ArialMT-53"/>
      </g>
     </g>
    </g>
    <g id="text_14">
     <!-- Efficiency [%] -->
     <defs>
      <path d="M 7.90625 0 
L 7.90625 71.578125 
L 59.671875 71.578125 
L 59.671875 63.140625 
L 17.390625 63.140625 
L 17.390625 41.21875 
L 56.984375 41.21875 
L 56.984375 32.8125 
L 17.390625 32.8125 
L 17.390625 8.453125 
L 61.328125 8.453125 
L 61.328125 0 
z
" id="ArialMT-69"/>
      <path d="M 8.6875 0 
L 8.6875 45.015625 
L 0.921875 45.015625 
L 0.921875 51.859375 
L 8.6875 51.859375 
L 8.6875 57.375 
Q 8.6875 62.59375 9.625 65.140625 
Q 10.890625 68.5625 14.078125 70.671875 
Q 17.28125 72.796875 23.046875 72.796875 
Q 26.765625 72.796875 31.25 71.921875 
L 29.9375 64.265625 
Q 27.203125 64.75 24.75 64.75 
Q 20.75 64.75 19.09375 63.03125 
Q 17.4375 61.328125 17.4375 56.640625 
L 17.4375 51.859375 
L 27.546875 51.859375 
L 27.546875 45.015625 
L 17.4375 45.015625 
L 17.4375 0 
z
" id="ArialMT-102"/>
      <path d="M 40.4375 19 
L 49.078125 17.875 
Q 47.65625 8.9375 41.8125 3.875 
Q 35.984375 -1.171875 27.484375 -1.171875 
Q 16.84375 -1.171875 10.375 5.78125 
Q 3.90625 12.75 3.90625 25.734375 
Q 3.90625 34.125 6.6875 40.421875 
Q 9.46875 46.734375 15.15625 49.875 
Q 20.84375 53.03125 27.546875 53.03125 
Q 35.984375 53.03125 41.359375 48.75 
Q 46.734375 44.484375 48.25 36.625 
L 39.703125 35.296875 
Q 38.484375 40.53125 35.375 43.15625 
Q 32.28125 45.796875 27.875 45.796875 
Q 21.234375 45.796875 17.078125 41.03125 
Q 12.9375 36.28125 12.9375 25.984375 
Q 12.9375 15.53125 16.9375 10.796875 
Q 20.953125 6.0625 27.390625 6.0625 
Q 32.5625 6.0625 36.03125 9.234375 
Q 39.5 12.40625 40.4375 19 
z
" id="ArialMT-99"/>
      <path d="M 6.59375 0 
L 6.59375 51.859375 
L 14.5 51.859375 
L 14.5 44.484375 
Q 20.21875 53.03125 31 53.03125 
Q 35.6875 53.03125 39.625 51.34375 
Q 43.5625 49.65625 45.515625 46.921875 
Q 47.46875 44.1875 48.25 40.4375 
Q 48.734375 37.984375 48.734375 31.890625 
L 48.734375 0 
L 39.9375 0 
L 39.9375 31.546875 
Q 39.9375 36.921875 38.90625 39.578125 
Q 37.890625 42.234375 35.28125 43.8125 
Q 32.671875 45.40625 29.15625 45.40625 
Q 23.53125 45.40625 19.453125 41.84375 
Q 15.375 38.28125 15.375 28.328125 
L 15.375 0 
z
" id="ArialMT-110"/>
      <path d="M 6.78125 -19.875 
L 6.78125 71.578125 
L 26.171875 71.578125 
L 26.171875 64.3125 
L 15.578125 64.3125 
L 15.578125 -12.59375 
L 26.171875 -12.59375 
L 26.171875 -19.875 
z
" id="ArialMT-91"/>
      <path d="M 5.8125 54.390625 
Q 5.8125 62.0625 9.671875 67.421875 
Q 13.53125 72.796875 20.84375 72.796875 
Q 27.59375 72.796875 32 67.984375 
Q 36.421875 63.1875 36.421875 53.859375 
Q 36.421875 44.78125 31.953125 39.875 
Q 27.484375 34.96875 20.953125 34.96875 
Q 14.453125 34.96875 10.125 39.796875 
Q 5.8125 44.625 5.8125 54.390625 
z
M 21.09375 66.75 
Q 17.828125 66.75 15.65625 63.90625 
Q 13.484375 61.078125 13.484375 53.515625 
Q 13.484375 46.625 15.671875 43.8125 
Q 17.875 41.015625 21.09375 41.015625 
Q 24.421875 41.015625 26.59375 43.84375 
Q 28.765625 46.6875 28.765625 54.203125 
Q 28.765625 61.140625 26.5625 63.9375 
Q 24.359375 66.75 21.09375 66.75 
z
M 21.140625 -2.640625 
L 60.296875 72.796875 
L 67.4375 72.796875 
L 28.421875 -2.640625 
z
M 52.09375 16.796875 
Q 52.09375 24.515625 55.953125 29.859375 
Q 59.8125 35.203125 67.1875 35.203125 
Q 73.921875 35.203125 78.34375 30.390625 
Q 82.765625 25.59375 82.765625 16.265625 
Q 82.765625 7.171875 78.296875 2.265625 
Q 73.828125 -2.640625 67.234375 -2.640625 
Q 60.75 -2.640625 56.421875 2.21875 
Q 52.09375 7.078125 52.09375 16.796875 
z
M 67.4375 29.15625 
Q 64.109375 29.15625 61.9375 26.3125 
Q 59.765625 23.484375 59.765625 15.921875 
Q 59.765625 9.078125 61.953125 6.25 
Q 64.15625 3.421875 67.390625 3.421875 
Q 70.75 3.421875 72.921875 6.25 
Q 75.09375 9.078125 75.09375 16.609375 
Q 75.09375 23.53125 72.890625 26.34375 
Q 70.703125 29.15625 67.4375 29.15625 
z
" id="ArialMT-37"/>
      <path d="M 21.296875 -19.875 
L 1.90625 -19.875 
L 1.90625 -12.59375 
L 12.5 -12.59375 
L 12.5 64.3125 
L 1.90625 64.3125 
L 1.90625 71.578125 
L 21.296875 71.578125 
z
" id="ArialMT-93"/>
     </defs>
     <g style="fill:#262626;" transform="translate(14.479687 198.5175)rotate(-90)scale(0.1 -0.1)">
      <use xlink:href="#ArialMT-69"/>
      <use x="66.699219" xlink:href="#ArialMT-102"/>
      <use x="92.732422" xlink:href="#ArialMT-102"/>
      <use x="120.515625" xlink:href="#ArialMT-105"/>
      <use x="142.732422" xlink:href="#ArialMT-99"/>
      <use x="192.732422" xlink:href="#ArialMT-105"/>
      <use x="214.949219" xlink:href="#ArialMT-101"/>
      <use x="270.564453" xlink:href="#ArialMT-110"/>
      <use x="326.179688" xlink:href="#ArialMT-99"/>
      <use x="376.179688" xlink:href="#ArialMT-121"/>
      <use x="426.179688" xlink:href="#ArialMT-32"/>
      <use x="453.962891" xlink:href="#ArialMT-91"/>
      <use x="481.746094" xlink:href="#ArialMT-37"/>
      <use x="570.662109" xlink:href="#ArialMT-93"/>
     </g>
    </g>
   </g>
   <g id="PolyCollection_1">
    <defs>
     <path d="M 61.751676 -68.550805 
L 61.751676 -55.255544 
L 65.474806 -242.393743 
L 69.197936 -251.490255 
L 72.921066 -254.563646 
L 76.644196 -258.259413 
L 80.367326 -260.822677 
L 84.090456 -262.854624 
L 87.813586 -265.453161 
L 91.536716 -266.770942 
L 95.259846 -269.743039 
L 98.982976 -271.984523 
L 102.706107 -273.567982 
L 106.429237 -275.531053 
L 110.152367 -277.661429 
L 113.875497 -279.586151 
L 117.598627 -281.019526 
L 121.321757 -282.027795 
L 125.044887 -284.028559 
L 128.768017 -284.361529 
L 132.491147 -285.491804 
L 136.214277 -286.901694 
L 139.937407 -287.52107 
L 143.660537 -289.016635 
L 147.383667 -289.902677 
L 151.106797 -291.466777 
L 154.829927 -292.449755 
L 158.553057 -294.105131 
L 162.276187 -294.339951 
L 165.999317 -295.479729 
L 169.722447 -295.662018 
L 173.445577 -296.390312 
L 177.168707 -296.776078 
L 180.891837 -296.681909 
L 184.614967 -297.631283 
L 188.338097 -298.399168 
L 192.061227 -298.121736 
L 195.784357 -298.311224 
L 199.507487 -299.066975 
L 203.230617 -299.502665 
L 206.953747 -300.396691 
L 210.676878 -301.301601 
L 214.400008 -301.858474 
L 218.123138 -302.497894 
L 221.846268 -302.463977 
L 225.569398 -303.217641 
L 229.292528 -303.698617 
L 233.015658 -305.0396 
L 236.738788 -305.578607 
L 240.461918 -305.687885 
L 244.185048 -306.047915 
L 247.908178 -306.942834 
L 251.631308 -306.812676 
L 255.354438 -306.834029 
L 259.077568 -306.976368 
L 262.800698 -307.684902 
L 266.523828 -308.144191 
L 270.246958 -308.691399 
L 273.970088 -308.574112 
L 277.693218 -307.579332 
L 281.416348 -308.230969 
L 285.139478 -307.284379 
L 288.862608 -307.973836 
L 292.585738 -308.2938 
L 296.308868 -308.716406 
L 300.031998 -308.723858 
L 303.755128 -307.680703 
L 307.478258 -308.098131 
L 311.201388 -308.340585 
L 314.924518 -308.581531 
L 318.647649 -309.356086 
L 322.370779 -309.77138 
L 326.093909 -310.034524 
L 329.817039 -309.509312 
L 333.540169 -309.84783 
L 337.263299 -309.374328 
L 340.986429 -309.267635 
L 344.709559 -309.741124 
L 348.432689 -309.688728 
L 352.155819 -310.487115 
L 355.878949 -310.397616 
L 355.878949 -316.71696 
L 355.878949 -316.71696 
L 352.155819 -316.275373 
L 348.432689 -316.128072 
L 344.709559 -315.972462 
L 340.986429 -315.706848 
L 337.263299 -315.898187 
L 333.540169 -316.222771 
L 329.817039 -316.164958 
L 326.093909 -316.237639 
L 322.370779 -315.681368 
L 318.647649 -315.468788 
L 314.924518 -314.891874 
L 311.201388 -314.509602 
L 307.478258 -314.555347 
L 303.755128 -313.892757 
L 300.031998 -315.10566 
L 296.308868 -315.007946 
L 292.585738 -314.325646 
L 288.862608 -313.987102 
L 285.139478 -313.791688 
L 281.416348 -314.040044 
L 277.693218 -313.923184 
L 273.970088 -314.488352 
L 270.246958 -314.687157 
L 266.523828 -314.222428 
L 262.800698 -314.183292 
L 259.077568 -313.328123 
L 255.354438 -312.902332 
L 251.631308 -313.304886 
L 247.908178 -313.223993 
L 244.185048 -312.673268 
L 240.461918 -311.856211 
L 236.738788 -311.821479 
L 233.015658 -311.265374 
L 229.292528 -309.891556 
L 225.569398 -309.404986 
L 221.846268 -308.779439 
L 218.123138 -308.647431 
L 214.400008 -307.856579 
L 210.676878 -307.373175 
L 206.953747 -306.949666 
L 203.230617 -305.785668 
L 199.507487 -305.130703 
L 195.784357 -304.536811 
L 192.061227 -304.658432 
L 188.338097 -304.742918 
L 184.614967 -304.26707 
L 180.891837 -303.254144 
L 177.168707 -302.797658 
L 173.445577 -302.860181 
L 169.722447 -301.916071 
L 165.999317 -302.036405 
L 162.276187 -301.713892 
L 158.553057 -300.905037 
L 154.829927 -299.629461 
L 151.106797 -298.290576 
L 147.383667 -297.089401 
L 143.660537 -296.645894 
L 139.937407 -295.034808 
L 136.214277 -294.054196 
L 132.491147 -292.811793 
L 128.768017 -291.356827 
L 125.044887 -291.125487 
L 121.321757 -289.389503 
L 117.598627 -287.882782 
L 113.875497 -286.51474 
L 110.152367 -284.995183 
L 106.429237 -282.657418 
L 102.706107 -280.81648 
L 98.982976 -279.156176 
L 95.259846 -276.963599 
L 91.536716 -274.738829 
L 87.813586 -272.554102 
L 84.090456 -270.247148 
L 80.367326 -268.062481 
L 76.644196 -265.279225 
L 72.921066 -261.793195 
L 69.197936 -258.422855 
L 65.474806 -249.938414 
L 61.751676 -68.550805 
z
" id="m10e859f0d8" style="stroke:#1f77b4;stroke-opacity:0.2;"/>
    </defs>
    <g clip-path="url(#p8178c48b91)">
     <use style="fill:#1f77b4;fill-opacity:0.2;stroke:#1f77b4;stroke-opacity:0.2;" x="0" xlink:href="#m10e859f0d8" y="351.985313"/>
    </g>
   </g>
   <g id="PolyCollection_2">
    <defs>
     <path d="M 61.751676 -65.571345 
L 61.751676 -50.78844 
L 65.474806 -200.561223 
L 69.197936 -205.570475 
L 72.921066 -206.941091 
L 76.644196 -204.76357 
L 80.367326 -203.040814 
L 84.090456 -201.593985 
L 87.813586 -199.583619 
L 91.536716 -197.825305 
L 95.259846 -196.546785 
L 98.982976 -195.667082 
L 102.706107 -194.311705 
L 106.429237 -192.281594 
L 110.152367 -191.03868 
L 113.875497 -189.440078 
L 117.598627 -188.363921 
L 121.321757 -187.865843 
L 125.044887 -187.760435 
L 128.768017 -187.045813 
L 132.491147 -187.022856 
L 136.214277 -187.072643 
L 139.937407 -185.765658 
L 143.660537 -185.659919 
L 147.383667 -186.016548 
L 151.106797 -185.13155 
L 154.829927 -183.542703 
L 158.553057 -183.810688 
L 162.276187 -183.012586 
L 165.999317 -182.83712 
L 169.722447 -182.563527 
L 173.445577 -181.887183 
L 177.168707 -181.440708 
L 180.891837 -180.385893 
L 184.614967 -179.753251 
L 188.338097 -180.081444 
L 192.061227 -180.198576 
L 195.784357 -179.439738 
L 199.507487 -179.205328 
L 203.230617 -178.150768 
L 206.953747 -178.255359 
L 210.676878 -177.751986 
L 214.400008 -178.055658 
L 218.123138 -178.647794 
L 221.846268 -178.008164 
L 225.569398 -177.709943 
L 229.292528 -177.414007 
L 233.015658 -177.392086 
L 236.738788 -176.940076 
L 240.461918 -177.611842 
L 244.185048 -177.181886 
L 247.908178 -176.988097 
L 251.631308 -176.881913 
L 255.354438 -176.364064 
L 259.077568 -175.890335 
L 262.800698 -175.533667 
L 266.523828 -175.943388 
L 270.246958 -175.397171 
L 273.970088 -176.564299 
L 277.693218 -176.24924 
L 281.416348 -176.140382 
L 285.139478 -176.352435 
L 288.862608 -176.151837 
L 292.585738 -175.050758 
L 296.308868 -174.932362 
L 300.031998 -174.270618 
L 303.755128 -174.282881 
L 307.478258 -174.725407 
L 311.201388 -174.962846 
L 314.924518 -175.06198 
L 318.647649 -174.86013 
L 322.370779 -174.611654 
L 326.093909 -174.331127 
L 329.817039 -174.528356 
L 333.540169 -173.90369 
L 337.263299 -174.224183 
L 340.986429 -174.297058 
L 344.709559 -174.455954 
L 348.432689 -173.988526 
L 352.155819 -172.903051 
L 355.878949 -172.822882 
L 355.878949 -178.5705 
L 355.878949 -178.5705 
L 352.155819 -178.520604 
L 348.432689 -179.919645 
L 344.709559 -180.081693 
L 340.986429 -179.963244 
L 337.263299 -180.13732 
L 333.540169 -179.693779 
L 329.817039 -180.520289 
L 326.093909 -180.017537 
L 322.370779 -180.25463 
L 318.647649 -180.859576 
L 314.924518 -181.140815 
L 311.201388 -180.742782 
L 307.478258 -180.51818 
L 303.755128 -180.077332 
L 300.031998 -180.207335 
L 296.308868 -180.772823 
L 292.585738 -181.094696 
L 288.862608 -182.62258 
L 285.139478 -182.429514 
L 281.416348 -182.198723 
L 277.693218 -182.446367 
L 273.970088 -182.189763 
L 270.246958 -181.685486 
L 266.523828 -182.210272 
L 262.800698 -181.548728 
L 259.077568 -182.145366 
L 255.354438 -182.660456 
L 251.631308 -183.013459 
L 247.908178 -183.264466 
L 244.185048 -182.904797 
L 240.461918 -183.558153 
L 236.738788 -183.158707 
L 233.015658 -183.119882 
L 229.292528 -183.391351 
L 225.569398 -183.556612 
L 221.846268 -184.086855 
L 218.123138 -184.48091 
L 214.400008 -184.394677 
L 210.676878 -183.840383 
L 206.953747 -184.20691 
L 203.230617 -184.329662 
L 199.507487 -185.516751 
L 195.784357 -185.331089 
L 192.061227 -186.179662 
L 188.338097 -186.165929 
L 184.614967 -186.146206 
L 180.891837 -187.090739 
L 177.168707 -188.214687 
L 173.445577 -188.739523 
L 169.722447 -189.228266 
L 165.999317 -189.644742 
L 162.276187 -189.890054 
L 158.553057 -190.501862 
L 154.829927 -190.306805 
L 151.106797 -192.031953 
L 147.383667 -192.598469 
L 143.660537 -192.498345 
L 139.937407 -192.519987 
L 136.214277 -193.190899 
L 132.491147 -194.180126 
L 128.768017 -193.694997 
L 125.044887 -194.38969 
L 121.321757 -194.433713 
L 117.598627 -195.375247 
L 113.875497 -196.023621 
L 110.152367 -197.628016 
L 106.429237 -199.129135 
L 102.706107 -201.348903 
L 98.982976 -202.019432 
L 95.259846 -203.622102 
L 91.536716 -204.697811 
L 87.813586 -206.830886 
L 84.090456 -208.429574 
L 80.367326 -209.776791 
L 76.644196 -212.145317 
L 72.921066 -214.571876 
L 69.197936 -212.701817 
L 65.474806 -208.438515 
L 61.751676 -65.571345 
z
" id="mb69f123bac" style="stroke:#ff7f0e;stroke-opacity:0.2;"/>
    </defs>
    <g clip-path="url(#p8178c48b91)">
     <use style="fill:#ff7f0e;fill-opacity:0.2;stroke:#ff7f0e;stroke-opacity:0.2;" x="0" xlink:href="#mb69f123bac" y="351.985313"/>
    </g>
   </g>
   <g id="PolyCollection_3">
    <defs>
     <path d="M 61.751676 -70.238026 
L 61.751676 -55.748731 
L 65.474806 -223.815332 
L 69.197936 -230.969244 
L 72.921066 -231.361888 
L 76.644196 -232.545283 
L 80.367326 -231.88849 
L 84.090456 -232.351306 
L 87.813586 -234.303073 
L 91.536716 -234.452219 
L 95.259846 -235.44174 
L 98.982976 -235.40192 
L 102.706107 -235.497817 
L 106.429237 -234.861889 
L 110.152367 -235.728447 
L 113.875497 -236.004564 
L 117.598627 -236.133234 
L 121.321757 -237.557104 
L 125.044887 -237.163309 
L 128.768017 -237.212537 
L 132.491147 -237.67795 
L 136.214277 -238.095284 
L 139.937407 -237.296973 
L 143.660537 -238.452025 
L 147.383667 -237.731798 
L 151.106797 -236.894849 
L 154.829927 -236.618418 
L 158.553057 -236.78437 
L 162.276187 -236.019395 
L 165.999317 -236.451255 
L 169.722447 -237.391366 
L 173.445577 -237.64248 
L 177.168707 -237.932713 
L 180.891837 -237.095714 
L 184.614967 -237.176754 
L 188.338097 -236.414597 
L 192.061227 -236.528003 
L 195.784357 -236.8313 
L 199.507487 -237.456718 
L 203.230617 -237.900883 
L 206.953747 -237.09442 
L 210.676878 -237.099806 
L 214.400008 -237.169399 
L 218.123138 -235.503066 
L 221.846268 -236.23533 
L 225.569398 -236.898439 
L 229.292528 -236.146555 
L 233.015658 -236.762967 
L 236.738788 -235.652592 
L 240.461918 -236.421282 
L 244.185048 -235.727693 
L 247.908178 -235.998859 
L 251.631308 -237.141447 
L 255.354438 -237.25138 
L 259.077568 -236.110077 
L 262.800698 -237.309439 
L 266.523828 -237.743713 
L 270.246958 -237.402403 
L 273.970088 -237.755825 
L 277.693218 -238.226069 
L 281.416348 -238.55638 
L 285.139478 -239.193355 
L 288.862608 -239.477399 
L 292.585738 -237.779323 
L 296.308868 -237.433614 
L 300.031998 -238.307853 
L 303.755128 -238.687862 
L 307.478258 -238.291341 
L 311.201388 -238.500087 
L 314.924518 -238.965272 
L 318.647649 -239.689949 
L 322.370779 -239.799742 
L 326.093909 -240.747977 
L 329.817039 -240.301432 
L 333.540169 -240.259456 
L 337.263299 -240.668107 
L 340.986429 -240.001533 
L 344.709559 -239.781243 
L 348.432689 -239.965198 
L 352.155819 -240.016096 
L 355.878949 -241.12414 
L 355.878949 -247.897284 
L 355.878949 -247.897284 
L 352.155819 -247.138441 
L 348.432689 -247.158601 
L 344.709559 -246.676769 
L 340.986429 -246.835296 
L 337.263299 -247.608698 
L 333.540169 -247.20097 
L 329.817039 -247.233703 
L 326.093909 -247.92021 
L 322.370779 -247.301433 
L 318.647649 -246.801262 
L 314.924518 -246.524443 
L 311.201388 -246.210347 
L 307.478258 -245.984299 
L 303.755128 -246.195829 
L 300.031998 -245.652424 
L 296.308868 -245.095276 
L 292.585738 -245.707091 
L 288.862608 -246.750591 
L 285.139478 -247.047744 
L 281.416348 -246.161463 
L 277.693218 -245.95332 
L 273.970088 -245.582533 
L 270.246958 -245.204396 
L 266.523828 -245.657522 
L 262.800698 -244.772582 
L 259.077568 -244.394488 
L 255.354438 -244.995389 
L 251.631308 -245.256085 
L 247.908178 -244.421677 
L 244.185048 -244.124271 
L 240.461918 -244.14365 
L 236.738788 -243.607085 
L 233.015658 -243.926556 
L 229.292528 -243.370373 
L 225.569398 -244.223771 
L 221.846268 -243.947806 
L 218.123138 -243.255899 
L 214.400008 -244.373342 
L 210.676878 -244.235557 
L 206.953747 -244.948293 
L 203.230617 -245.561797 
L 199.507487 -245.150355 
L 195.784357 -244.664658 
L 192.061227 -243.840333 
L 188.338097 -244.221244 
L 184.614967 -244.932339 
L 180.891837 -245.090979 
L 177.168707 -245.211253 
L 173.445577 -244.893632 
L 169.722447 -244.355229 
L 165.999317 -243.415074 
L 162.276187 -243.559227 
L 158.553057 -243.926704 
L 154.829927 -243.534769 
L 151.106797 -243.942078 
L 147.383667 -245.016153 
L 143.660537 -245.155681 
L 139.937407 -244.938891 
L 136.214277 -244.908146 
L 132.491147 -244.886085 
L 128.768017 -244.872416 
L 125.044887 -244.239163 
L 121.321757 -244.84179 
L 117.598627 -244.039271 
L 113.875497 -243.371701 
L 110.152367 -243.357804 
L 106.429237 -242.728712 
L 102.706107 -243.51192 
L 98.982976 -243.59034 
L 95.259846 -243.522373 
L 91.536716 -242.585981 
L 87.813586 -241.709193 
L 84.090456 -240.2707 
L 80.367326 -239.557464 
L 76.644196 -240.034599 
L 72.921066 -239.22078 
L 69.197936 -238.859895 
L 65.474806 -232.022037 
L 61.751676 -70.238026 
z
" id="mdfe55a9bb0" style="stroke:#2ca02c;stroke-opacity:0.2;"/>
    </defs>
    <g clip-path="url(#p8178c48b91)">
     <use style="fill:#2ca02c;fill-opacity:0.2;stroke:#2ca02c;stroke-opacity:0.2;" x="0" xlink:href="#mdfe55a9bb0" y="351.985313"/>
    </g>
   </g>
   <g id="line2d_13">
    <path clip-path="url(#p8178c48b91)" d="M 61.751676 289.650045 
L 65.474806 105.778412 
L 69.197936 97.020932 
L 72.921066 93.720462 
L 76.644196 90.350232 
L 80.367326 87.610338 
L 84.090456 85.377712 
L 87.813586 83.326578 
L 91.536716 81.355682 
L 95.259846 78.479563 
L 98.982976 76.523693 
L 102.706107 74.836124 
L 106.429237 72.93983 
L 110.152367 70.720214 
L 113.875497 68.802767 
L 117.598627 67.487819 
L 121.321757 66.151159 
L 125.044887 64.582135 
L 128.768017 64.165758 
L 132.491147 62.825027 
L 136.214277 61.504764 
L 139.937407 60.608181 
L 143.660537 59.110208 
L 147.383667 58.454527 
L 151.106797 57.214136 
L 154.829927 55.988129 
L 158.553057 54.385786 
L 162.276187 54.022511 
L 165.999317 53.045031 
L 169.722447 53.176367 
L 173.445577 52.422236 
L 177.168707 52.160125 
L 180.891837 51.779059 
L 184.614967 51.051645 
L 188.338097 50.513672 
L 192.061227 50.488413 
L 195.784357 50.501179 
L 199.507487 49.879118 
L 203.230617 49.417689 
L 206.953747 48.298532 
L 210.676878 47.760565 
L 214.400008 47.175831 
L 218.123138 46.284595 
L 221.846268 46.419201 
L 225.569398 45.621436 
L 229.292528 45.283362 
L 233.015658 43.949335 
L 236.738788 43.348156 
L 240.461918 43.10017 
L 244.185048 42.522006 
L 247.908178 42.013181 
L 251.631308 41.901157 
L 255.354438 42.207923 
L 259.077568 41.854087 
L 262.800698 41.130285 
L 266.523828 40.794005 
L 270.246958 40.426318 
L 273.970088 40.540746 
L 277.693218 41.306046 
L 281.416348 40.869034 
L 285.139478 41.415409 
L 288.862608 40.925082 
L 292.585738 40.575406 
L 296.308868 40.142209 
L 300.031998 40.13465 
L 303.755128 41.131818 
L 307.478258 40.750209 
L 311.201388 40.577915 
L 314.924518 40.304766 
L 318.647649 39.554699 
L 322.370779 39.136374 
L 326.093909 38.8083 
L 329.817039 39.080079 
L 333.540169 38.770855 
L 337.263299 39.162448 
L 340.986429 39.476109 
L 344.709559 39.048896 
L 348.432689 39.076096 
L 352.155819 38.841727 
L 355.878949 38.428721 
" style="fill:none;stroke:#1f77b4;stroke-linecap:round;stroke-width:1.5;"/>
   </g>
   <g id="line2d_14">
    <path clip-path="url(#p8178c48b91)" d="M 61.751676 293.576584 
L 65.474806 147.304923 
L 69.197936 142.883608 
L 72.921066 141.413948 
L 76.644196 143.400528 
L 80.367326 145.571207 
L 84.090456 147.018472 
L 87.813586 148.852967 
L 91.536716 150.835877 
L 95.259846 151.74399 
L 98.982976 153.276265 
L 102.706107 154.299847 
L 106.429237 156.192403 
L 110.152367 157.663591 
L 113.875497 159.168004 
L 117.598627 160.093824 
L 121.321757 160.941537 
L 125.044887 160.930671 
L 128.768017 161.56656 
L 132.491147 161.55043 
L 136.214277 161.881231 
L 139.937407 162.830048 
L 143.660537 162.878125 
L 147.383667 162.658902 
L 151.106797 163.498497 
L 154.829927 164.883838 
L 158.553057 164.803845 
L 162.276187 165.777077 
L 165.999317 165.873118 
L 169.722447 165.919264 
L 173.445577 166.699658 
L 177.168707 167.282837 
L 180.891837 168.177349 
L 184.614967 168.982429 
L 188.338097 168.794414 
L 192.061227 168.720081 
L 195.784357 169.497022 
L 199.507487 169.710928 
L 203.230617 170.637994 
L 206.953747 170.905064 
L 210.676878 171.251374 
L 214.400008 170.765577 
L 218.123138 170.455632 
L 221.846268 170.978405 
L 225.569398 171.432544 
L 229.292528 171.619218 
L 233.015658 171.607078 
L 236.738788 171.853279 
L 240.461918 171.465126 
L 244.185048 171.894322 
L 247.908178 171.733063 
L 251.631308 172.136711 
L 255.354438 172.438065 
L 259.077568 172.929848 
L 262.800698 173.587113 
L 266.523828 173.054403 
L 270.246958 173.384684 
L 273.970088 172.542719 
L 277.693218 172.79347 
L 281.416348 172.952032 
L 285.139478 172.596599 
L 288.862608 172.639997 
L 292.585738 173.930143 
L 296.308868 174.215762 
L 300.031998 174.90698 
L 303.755128 174.732258 
L 307.478258 174.434573 
L 311.201388 174.08104 
L 314.924518 173.88619 
L 318.647649 174.15121 
L 322.370779 174.653236 
L 326.093909 174.778298 
L 329.817039 174.515416 
L 333.540169 175.181282 
L 337.263299 174.900122 
L 340.986429 174.942635 
L 344.709559 174.643913 
L 348.432689 175.011599 
L 352.155819 176.207949 
L 355.878949 176.302625 
" style="fill:none;stroke:#ff7f0e;stroke-linecap:round;stroke-width:1.5;"/>
   </g>
   <g id="line2d_15">
    <path clip-path="url(#p8178c48b91)" d="M 61.751676 289.037032 
L 65.474806 124.121997 
L 69.197936 116.99882 
L 72.921066 116.738364 
L 76.644196 115.652591 
L 80.367326 116.161999 
L 84.090456 115.561748 
L 87.813586 113.996639 
L 91.536716 113.461969 
L 95.259846 112.468599 
L 98.982976 112.512741 
L 102.706107 112.510121 
L 106.429237 113.17505 
L 110.152367 112.504701 
L 113.875497 112.262807 
L 117.598627 111.840032 
L 121.321757 110.865749 
L 125.044887 111.378275 
L 128.768017 111.144497 
L 132.491147 110.492825 
L 136.214277 110.531088 
L 139.937407 110.789295 
L 143.660537 110.234287 
L 147.383667 110.632428 
L 151.106797 111.448417 
L 154.829927 111.7327 
L 158.553057 111.489396 
L 162.276187 112.37503 
L 165.999317 112.067702 
L 169.722447 111.230131 
L 173.445577 110.906937 
L 177.168707 110.494355 
L 180.891837 110.945617 
L 184.614967 110.890084 
L 188.338097 111.49836 
L 192.061227 111.755554 
L 195.784357 111.406907 
L 199.507487 110.601847 
L 203.230617 110.382067 
L 206.953747 111.006735 
L 210.676878 111.291221 
L 214.400008 111.185671 
L 218.123138 112.578071 
L 221.846268 112.01966 
L 225.569398 111.503751 
L 229.292528 112.034849 
L 233.015658 111.721535 
L 236.738788 112.397936 
L 240.461918 111.873378 
L 244.185048 112.045581 
L 247.908178 111.606166 
L 251.631308 111.034676 
L 255.354438 110.957355 
L 259.077568 111.713879 
L 262.800698 110.971829 
L 266.523828 110.405196 
L 270.246958 110.486756 
L 273.970088 110.191301 
L 277.693218 109.68325 
L 281.416348 109.63372 
L 285.139478 108.939582 
L 288.862608 108.919998 
L 292.585738 110.248477 
L 296.308868 110.834645 
L 300.031998 109.933733 
L 303.755128 109.670831 
L 307.478258 109.805053 
L 311.201388 109.720792 
L 314.924518 109.207415 
L 318.647649 108.621373 
L 322.370779 108.41277 
L 326.093909 107.631135 
L 329.817039 108.201766 
L 333.540169 108.227026 
L 337.263299 107.991555 
L 340.986429 108.766081 
L 344.709559 108.650114 
L 348.432689 108.357171 
L 352.155819 108.305445 
L 355.878949 107.638797 
" style="fill:none;stroke:#2ca02c;stroke-linecap:round;stroke-width:1.5;"/>
   </g>
   <g id="patch_3">
    <path d="M 47.045313 315.255625 
L 47.045313 21.935625 
" style="fill:none;stroke:#cccccc;stroke-linecap:square;stroke-linejoin:miter;stroke-width:0.8;"/>
   </g>
   <g id="patch_4">
    <path d="M 47.045313 315.255625 
L 370.585313 315.255625 
" style="fill:none;stroke:#cccccc;stroke-linecap:square;stroke-linejoin:miter;stroke-width:0.8;"/>
   </g>
   <g id="text_15">
    <!-- Common sense hypothesis -->
    <defs>
     <path d="M 58.796875 25.09375 
L 68.265625 22.703125 
Q 65.28125 11.03125 57.546875 4.90625 
Q 49.8125 -1.21875 38.625 -1.21875 
Q 27.046875 -1.21875 19.796875 3.484375 
Q 12.546875 8.203125 8.765625 17.140625 
Q 4.984375 26.078125 4.984375 36.328125 
Q 4.984375 47.515625 9.25 55.828125 
Q 13.53125 64.15625 21.40625 68.46875 
Q 29.296875 72.796875 38.765625 72.796875 
Q 49.515625 72.796875 56.828125 67.328125 
Q 64.15625 61.859375 67.046875 51.953125 
L 57.71875 49.75 
Q 55.21875 57.5625 50.484375 61.125 
Q 45.75 64.703125 38.578125 64.703125 
Q 30.328125 64.703125 24.78125 60.734375 
Q 19.234375 56.78125 16.984375 50.109375 
Q 14.75 43.453125 14.75 36.375 
Q 14.75 27.25 17.40625 20.4375 
Q 20.0625 13.625 25.671875 10.25 
Q 31.296875 6.890625 37.84375 6.890625 
Q 45.796875 6.890625 51.3125 11.46875 
Q 56.84375 16.0625 58.796875 25.09375 
z
" id="ArialMT-67"/>
     <path d="M 3.328125 25.921875 
Q 3.328125 40.328125 11.328125 47.265625 
Q 18.015625 53.03125 27.640625 53.03125 
Q 38.328125 53.03125 45.109375 46.015625 
Q 51.90625 39.015625 51.90625 26.65625 
Q 51.90625 16.65625 48.90625 10.90625 
Q 45.90625 5.171875 40.15625 2 
Q 34.421875 -1.171875 27.640625 -1.171875 
Q 16.75 -1.171875 10.03125 5.8125 
Q 3.328125 12.796875 3.328125 25.921875 
z
M 12.359375 25.921875 
Q 12.359375 15.96875 16.703125 11.015625 
Q 21.046875 6.0625 27.640625 6.0625 
Q 34.1875 6.0625 38.53125 11.03125 
Q 42.875 16.015625 42.875 26.21875 
Q 42.875 35.84375 38.5 40.796875 
Q 34.125 45.75 27.640625 45.75 
Q 21.046875 45.75 16.703125 40.8125 
Q 12.359375 35.890625 12.359375 25.921875 
z
" id="ArialMT-111"/>
     <path d="M 6.59375 0 
L 6.59375 71.578125 
L 15.375 71.578125 
L 15.375 45.90625 
Q 21.53125 53.03125 30.90625 53.03125 
Q 36.671875 53.03125 40.921875 50.75 
Q 45.171875 48.484375 47 44.484375 
Q 48.828125 40.484375 48.828125 32.859375 
L 48.828125 0 
L 40.046875 0 
L 40.046875 32.859375 
Q 40.046875 39.453125 37.1875 42.453125 
Q 34.328125 45.453125 29.109375 45.453125 
Q 25.203125 45.453125 21.75 43.421875 
Q 18.3125 41.40625 16.84375 37.9375 
Q 15.375 34.46875 15.375 28.375 
L 15.375 0 
z
" id="ArialMT-104"/>
     <path d="M 6.59375 -19.875 
L 6.59375 51.859375 
L 14.59375 51.859375 
L 14.59375 45.125 
Q 17.4375 49.078125 21 51.046875 
Q 24.5625 53.03125 29.640625 53.03125 
Q 36.28125 53.03125 41.359375 49.609375 
Q 46.4375 46.1875 49.015625 39.953125 
Q 51.609375 33.734375 51.609375 26.3125 
Q 51.609375 18.359375 48.75 11.984375 
Q 45.90625 5.609375 40.453125 2.21875 
Q 35.015625 -1.171875 29 -1.171875 
Q 24.609375 -1.171875 21.109375 0.6875 
Q 17.625 2.546875 15.375 5.375 
L 15.375 -19.875 
z
M 14.546875 25.640625 
Q 14.546875 15.625 18.59375 10.84375 
Q 22.65625 6.0625 28.421875 6.0625 
Q 34.28125 6.0625 38.453125 11.015625 
Q 42.625 15.96875 42.625 26.375 
Q 42.625 36.28125 38.546875 41.203125 
Q 34.46875 46.140625 28.8125 46.140625 
Q 23.1875 46.140625 18.859375 40.890625 
Q 14.546875 35.640625 14.546875 25.640625 
z
" id="ArialMT-112"/>
     <path d="M 25.78125 7.859375 
L 27.046875 0.09375 
Q 23.34375 -0.6875 20.40625 -0.6875 
Q 15.625 -0.6875 12.984375 0.828125 
Q 10.359375 2.34375 9.28125 4.8125 
Q 8.203125 7.28125 8.203125 15.1875 
L 8.203125 45.015625 
L 1.765625 45.015625 
L 1.765625 51.859375 
L 8.203125 51.859375 
L 8.203125 64.703125 
L 16.9375 69.96875 
L 16.9375 51.859375 
L 25.78125 51.859375 
L 25.78125 45.015625 
L 16.9375 45.015625 
L 16.9375 14.703125 
Q 16.9375 10.9375 17.40625 9.859375 
Q 17.875 8.796875 18.921875 8.15625 
Q 19.96875 7.515625 21.921875 7.515625 
Q 23.390625 7.515625 25.78125 7.859375 
z
" id="ArialMT-116"/>
    </defs>
    <g style="fill:#262626;" transform="translate(136.450625 15.935625)scale(0.12 -0.12)">
     <use xlink:href="#ArialMT-67"/>
     <use x="72.216797" xlink:href="#ArialMT-111"/>
     <use x="127.832031" xlink:href="#ArialMT-109"/>
     <use x="211.132812" xlink:href="#ArialMT-109"/>
     <use x="294.433594" xlink:href="#ArialMT-111"/>
     <use x="350.048828" xlink:href="#ArialMT-110"/>
     <use x="405.664062" xlink:href="#ArialMT-32"/>
     <use x="433.447266" xlink:href="#ArialMT-115"/>
     <use x="483.447266" xlink:href="#ArialMT-101"/>
     <use x="539.0625" xlink:href="#ArialMT-110"/>
     <use x="594.677734" xlink:href="#ArialMT-115"/>
     <use x="644.677734" xlink:href="#ArialMT-101"/>
     <use x="700.292969" xlink:href="#ArialMT-32"/>
     <use x="728.076172" xlink:href="#ArialMT-104"/>
     <use x="783.691406" xlink:href="#ArialMT-121"/>
     <use x="833.691406" xlink:href="#ArialMT-112"/>
     <use x="889.306641" xlink:href="#ArialMT-111"/>
     <use x="944.921875" xlink:href="#ArialMT-116"/>
     <use x="972.705078" xlink:href="#ArialMT-104"/>
     <use x="1028.320312" xlink:href="#ArialMT-101"/>
     <use x="1083.935547" xlink:href="#ArialMT-115"/>
     <use x="1133.935547" xlink:href="#ArialMT-105"/>
     <use x="1156.152344" xlink:href="#ArialMT-115"/>
    </g>
   </g>
   <g id="legend_1">
    <g id="patch_5">
     <path d="M 54.045313 86.634062 
L 164.409375 86.634062 
Q 166.409375 86.634062 166.409375 84.634062 
L 166.409375 28.935625 
Q 166.409375 26.935625 164.409375 26.935625 
L 54.045313 26.935625 
Q 52.045313 26.935625 52.045313 28.935625 
L 52.045313 84.634062 
Q 52.045313 86.634062 54.045313 86.634062 
z
" style="fill:#ffffff;opacity:0.8;stroke:#cccccc;stroke-linejoin:miter;"/>
    </g>
    <g id="text_16">
     <!-- Promotion strategy -->
     <defs>
      <path d="M 7.71875 0 
L 7.71875 71.578125 
L 34.71875 71.578125 
Q 41.84375 71.578125 45.609375 70.90625 
Q 50.875 70.015625 54.4375 67.546875 
Q 58.015625 65.09375 60.1875 60.640625 
Q 62.359375 56.203125 62.359375 50.875 
Q 62.359375 41.75 56.546875 35.421875 
Q 50.734375 29.109375 35.546875 29.109375 
L 17.1875 29.109375 
L 17.1875 0 
z
M 17.1875 37.546875 
L 35.6875 37.546875 
Q 44.875 37.546875 48.734375 40.96875 
Q 52.59375 44.390625 52.59375 50.59375 
Q 52.59375 55.078125 50.3125 58.265625 
Q 48.046875 61.46875 44.34375 62.5 
Q 41.9375 63.140625 35.5 63.140625 
L 17.1875 63.140625 
z
" id="ArialMT-80"/>
      <path d="M 4.984375 -4.296875 
L 13.53125 -5.5625 
Q 14.0625 -9.515625 16.5 -11.328125 
Q 19.78125 -13.765625 25.4375 -13.765625 
Q 31.546875 -13.765625 34.859375 -11.328125 
Q 38.1875 -8.890625 39.359375 -4.5 
Q 40.046875 -1.8125 39.984375 6.78125 
Q 34.234375 0 25.640625 0 
Q 14.9375 0 9.078125 7.71875 
Q 3.21875 15.4375 3.21875 26.21875 
Q 3.21875 33.640625 5.90625 39.90625 
Q 8.59375 46.1875 13.6875 49.609375 
Q 18.796875 53.03125 25.6875 53.03125 
Q 34.859375 53.03125 40.828125 45.609375 
L 40.828125 51.859375 
L 48.921875 51.859375 
L 48.921875 7.03125 
Q 48.921875 -5.078125 46.453125 -10.125 
Q 44 -15.1875 38.640625 -18.109375 
Q 33.296875 -21.046875 25.484375 -21.046875 
Q 16.21875 -21.046875 10.5 -16.875 
Q 4.78125 -12.703125 4.984375 -4.296875 
z
M 12.25 26.859375 
Q 12.25 16.65625 16.296875 11.96875 
Q 20.359375 7.28125 26.46875 7.28125 
Q 32.515625 7.28125 36.609375 11.9375 
Q 40.71875 16.609375 40.71875 26.5625 
Q 40.71875 36.078125 36.5 40.90625 
Q 32.28125 45.75 26.3125 45.75 
Q 20.453125 45.75 16.34375 40.984375 
Q 12.25 36.234375 12.25 26.859375 
z
" id="ArialMT-103"/>
     </defs>
     <g style="fill:#262626;" transform="translate(67.267188 38.093437)scale(0.1 -0.1)">
      <use xlink:href="#ArialMT-80"/>
      <use x="66.699219" xlink:href="#ArialMT-114"/>
      <use x="100" xlink:href="#ArialMT-111"/>
      <use x="155.615234" xlink:href="#ArialMT-109"/>
      <use x="238.916016" xlink:href="#ArialMT-111"/>
      <use x="294.53125" xlink:href="#ArialMT-116"/>
      <use x="322.314453" xlink:href="#ArialMT-105"/>
      <use x="344.53125" xlink:href="#ArialMT-111"/>
      <use x="400.146484" xlink:href="#ArialMT-110"/>
      <use x="455.761719" xlink:href="#ArialMT-32"/>
      <use x="483.544922" xlink:href="#ArialMT-115"/>
      <use x="533.544922" xlink:href="#ArialMT-116"/>
      <use x="561.328125" xlink:href="#ArialMT-114"/>
      <use x="594.628906" xlink:href="#ArialMT-97"/>
      <use x="650.244141" xlink:href="#ArialMT-116"/>
      <use x="678.027344" xlink:href="#ArialMT-101"/>
      <use x="733.642578" xlink:href="#ArialMT-103"/>
      <use x="789.257812" xlink:href="#ArialMT-121"/>
     </g>
    </g>
    <g id="line2d_16">
     <path d="M 56.045313 48.855937 
L 76.045312 48.855937 
" style="fill:none;stroke:#1f77b4;stroke-linecap:round;stroke-width:1.5;"/>
    </g>
    <g id="line2d_17"/>
    <g id="text_17">
     <!-- Promote Best -->
     <defs>
      <path d="M 7.328125 0 
L 7.328125 71.578125 
L 34.1875 71.578125 
Q 42.390625 71.578125 47.34375 69.40625 
Q 52.296875 67.234375 55.09375 62.71875 
Q 57.90625 58.203125 57.90625 53.265625 
Q 57.90625 48.6875 55.421875 44.625 
Q 52.9375 40.578125 47.90625 38.09375 
Q 54.390625 36.1875 57.875 31.59375 
Q 61.375 27 61.375 20.75 
Q 61.375 15.71875 59.25 11.390625 
Q 57.125 7.078125 54 4.734375 
Q 50.875 2.390625 46.15625 1.1875 
Q 41.453125 0 34.625 0 
z
M 16.796875 41.5 
L 32.28125 41.5 
Q 38.578125 41.5 41.3125 42.328125 
Q 44.921875 43.40625 46.75 45.890625 
Q 48.578125 48.390625 48.578125 52.15625 
Q 48.578125 55.71875 46.875 58.421875 
Q 45.171875 61.140625 41.984375 62.140625 
Q 38.8125 63.140625 31.109375 63.140625 
L 16.796875 63.140625 
z
M 16.796875 8.453125 
L 34.625 8.453125 
Q 39.203125 8.453125 41.0625 8.796875 
Q 44.34375 9.375 46.53125 10.734375 
Q 48.734375 12.109375 50.140625 14.71875 
Q 51.5625 17.328125 51.5625 20.75 
Q 51.5625 24.75 49.515625 27.703125 
Q 47.46875 30.671875 43.828125 31.859375 
Q 40.1875 33.0625 33.34375 33.0625 
L 16.796875 33.0625 
z
" id="ArialMT-66"/>
     </defs>
     <g style="fill:#262626;" transform="translate(84.045312 52.355937)scale(0.1 -0.1)">
      <use xlink:href="#ArialMT-80"/>
      <use x="66.699219" xlink:href="#ArialMT-114"/>
      <use x="100" xlink:href="#ArialMT-111"/>
      <use x="155.615234" xlink:href="#ArialMT-109"/>
      <use x="238.916016" xlink:href="#ArialMT-111"/>
      <use x="294.53125" xlink:href="#ArialMT-116"/>
      <use x="322.314453" xlink:href="#ArialMT-101"/>
      <use x="377.929688" xlink:href="#ArialMT-32"/>
      <use x="405.712891" xlink:href="#ArialMT-66"/>
      <use x="472.412109" xlink:href="#ArialMT-101"/>
      <use x="528.027344" xlink:href="#ArialMT-115"/>
      <use x="578.027344" xlink:href="#ArialMT-116"/>
     </g>
    </g>
    <g id="line2d_18">
     <path d="M 56.045313 63.00125 
L 76.045312 63.00125 
" style="fill:none;stroke:#ff7f0e;stroke-linecap:round;stroke-width:1.5;"/>
    </g>
    <g id="line2d_19"/>
    <g id="text_18">
     <!-- Promote Worst -->
     <defs>
      <path d="M 20.21875 0 
L 1.21875 71.578125 
L 10.9375 71.578125 
L 21.828125 24.65625 
Q 23.578125 17.28125 24.859375 10.015625 
Q 27.59375 21.484375 28.078125 23.25 
L 41.703125 71.578125 
L 53.125 71.578125 
L 63.375 35.359375 
Q 67.234375 21.875 68.953125 10.015625 
Q 70.3125 16.796875 72.515625 25.59375 
L 83.734375 71.578125 
L 93.265625 71.578125 
L 73.640625 0 
L 64.5 0 
L 49.421875 54.546875 
Q 47.515625 61.375 47.171875 62.9375 
Q 46.046875 58.015625 45.0625 54.546875 
L 29.890625 0 
z
" id="ArialMT-87"/>
     </defs>
     <g style="fill:#262626;" transform="translate(84.045312 66.50125)scale(0.1 -0.1)">
      <use xlink:href="#ArialMT-80"/>
      <use x="66.699219" xlink:href="#ArialMT-114"/>
      <use x="100" xlink:href="#ArialMT-111"/>
      <use x="155.615234" xlink:href="#ArialMT-109"/>
      <use x="238.916016" xlink:href="#ArialMT-111"/>
      <use x="294.53125" xlink:href="#ArialMT-116"/>
      <use x="322.314453" xlink:href="#ArialMT-101"/>
      <use x="377.929688" xlink:href="#ArialMT-32"/>
      <use x="405.712891" xlink:href="#ArialMT-87"/>
      <use x="498.347656" xlink:href="#ArialMT-111"/>
      <use x="553.962891" xlink:href="#ArialMT-114"/>
      <use x="587.263672" xlink:href="#ArialMT-115"/>
      <use x="637.263672" xlink:href="#ArialMT-116"/>
     </g>
    </g>
    <g id="line2d_20">
     <path d="M 56.045313 77.146562 
L 76.045312 77.146562 
" style="fill:none;stroke:#2ca02c;stroke-linecap:round;stroke-width:1.5;"/>
    </g>
    <g id="line2d_21"/>
    <g id="text_19">
     <!-- Promote Random -->
     <defs>
      <path d="M 7.859375 0 
L 7.859375 71.578125 
L 39.59375 71.578125 
Q 49.171875 71.578125 54.140625 69.640625 
Q 59.125 67.71875 62.109375 62.828125 
Q 65.09375 57.953125 65.09375 52.046875 
Q 65.09375 44.4375 60.15625 39.203125 
Q 55.21875 33.984375 44.921875 32.5625 
Q 48.6875 30.765625 50.640625 29 
Q 54.78125 25.203125 58.5 19.484375 
L 70.953125 0 
L 59.03125 0 
L 49.5625 14.890625 
Q 45.40625 21.34375 42.71875 24.75 
Q 40.046875 28.171875 37.921875 29.53125 
Q 35.796875 30.90625 33.59375 31.453125 
Q 31.984375 31.78125 28.328125 31.78125 
L 17.328125 31.78125 
L 17.328125 0 
z
M 17.328125 39.984375 
L 37.703125 39.984375 
Q 44.1875 39.984375 47.84375 41.328125 
Q 51.515625 42.671875 53.421875 45.625 
Q 55.328125 48.578125 55.328125 52.046875 
Q 55.328125 57.125 51.640625 60.390625 
Q 47.953125 63.671875 39.984375 63.671875 
L 17.328125 63.671875 
z
" id="ArialMT-82"/>
      <path d="M 40.234375 0 
L 40.234375 6.546875 
Q 35.296875 -1.171875 25.734375 -1.171875 
Q 19.53125 -1.171875 14.328125 2.25 
Q 9.125 5.671875 6.265625 11.796875 
Q 3.421875 17.921875 3.421875 25.875 
Q 3.421875 33.640625 6 39.96875 
Q 8.59375 46.296875 13.765625 49.65625 
Q 18.953125 53.03125 25.34375 53.03125 
Q 30.03125 53.03125 33.6875 51.046875 
Q 37.359375 49.078125 39.65625 45.90625 
L 39.65625 71.578125 
L 48.390625 71.578125 
L 48.390625 0 
z
M 12.453125 25.875 
Q 12.453125 15.921875 16.640625 10.984375 
Q 20.84375 6.0625 26.5625 6.0625 
Q 32.328125 6.0625 36.34375 10.765625 
Q 40.375 15.484375 40.375 25.140625 
Q 40.375 35.796875 36.265625 40.765625 
Q 32.171875 45.75 26.171875 45.75 
Q 20.3125 45.75 16.375 40.96875 
Q 12.453125 36.1875 12.453125 25.875 
z
" id="ArialMT-100"/>
     </defs>
     <g style="fill:#262626;" transform="translate(84.045312 80.646562)scale(0.1 -0.1)">
      <use xlink:href="#ArialMT-80"/>
      <use x="66.699219" xlink:href="#ArialMT-114"/>
      <use x="100" xlink:href="#ArialMT-111"/>
      <use x="155.615234" xlink:href="#ArialMT-109"/>
      <use x="238.916016" xlink:href="#ArialMT-111"/>
      <use x="294.53125" xlink:href="#ArialMT-116"/>
      <use x="322.314453" xlink:href="#ArialMT-101"/>
      <use x="377.929688" xlink:href="#ArialMT-32"/>
      <use x="405.712891" xlink:href="#ArialMT-82"/>
      <use x="477.929688" xlink:href="#ArialMT-97"/>
      <use x="533.544922" xlink:href="#ArialMT-110"/>
      <use x="589.160156" xlink:href="#ArialMT-100"/>
      <use x="644.775391" xlink:href="#ArialMT-111"/>
      <use x="700.390625" xlink:href="#ArialMT-109"/>
     </g>
    </g>
   </g>
  </g>
  <g id="axes_2">
   <g id="patch_6">
    <path d="M 381.385312 315.255625 
L 704.925313 315.255625 
L 704.925313 21.935625 
L 381.385312 21.935625 
z
" style="fill:#ffffff;"/>
   </g>
   <g id="matplotlib.axis_3">
    <g id="xtick_8">
     <g id="line2d_22">
      <path clip-path="url(#pfd42014c0a)" d="M 396.091676 315.255625 
L 396.091676 21.935625 
" style="fill:none;stroke:#cccccc;stroke-linecap:round;stroke-width:0.8;"/>
     </g>
     <g id="text_20">
      <!-- 0 -->
      <g style="fill:#262626;" transform="translate(393.311207 329.413438)scale(0.1 -0.1)">
       <use xlink:href="#ArialMT-48"/>
      </g>
     </g>
    </g>
    <g id="xtick_9">
     <g id="line2d_23">
      <path clip-path="url(#pfd42014c0a)" d="M 440.769237 315.255625 
L 440.769237 21.935625 
" style="fill:none;stroke:#cccccc;stroke-linecap:round;stroke-width:0.8;"/>
     </g>
     <g id="text_21">
      <!-- 1 -->
      <g style="fill:#262626;" transform="translate(437.988768 329.413438)scale(0.1 -0.1)">
       <use xlink:href="#ArialMT-49"/>
      </g>
     </g>
    </g>
    <g id="xtick_10">
     <g id="line2d_24">
      <path clip-path="url(#pfd42014c0a)" d="M 485.446797 315.255625 
L 485.446797 21.935625 
" style="fill:none;stroke:#cccccc;stroke-linecap:round;stroke-width:0.8;"/>
     </g>
     <g id="text_22">
      <!-- 2 -->
      <g style="fill:#262626;" transform="translate(482.666328 329.413438)scale(0.1 -0.1)">
       <use xlink:href="#ArialMT-50"/>
      </g>
     </g>
    </g>
    <g id="xtick_11">
     <g id="line2d_25">
      <path clip-path="url(#pfd42014c0a)" d="M 530.124357 315.255625 
L 530.124357 21.935625 
" style="fill:none;stroke:#cccccc;stroke-linecap:round;stroke-width:0.8;"/>
     </g>
     <g id="text_23">
      <!-- 3 -->
      <g style="fill:#262626;" transform="translate(527.343889 329.413438)scale(0.1 -0.1)">
       <use xlink:href="#ArialMT-51"/>
      </g>
     </g>
    </g>
    <g id="xtick_12">
     <g id="line2d_26">
      <path clip-path="url(#pfd42014c0a)" d="M 574.801918 315.255625 
L 574.801918 21.935625 
" style="fill:none;stroke:#cccccc;stroke-linecap:round;stroke-width:0.8;"/>
     </g>
     <g id="text_24">
      <!-- 4 -->
      <g style="fill:#262626;" transform="translate(572.021449 329.413438)scale(0.1 -0.1)">
       <use xlink:href="#ArialMT-52"/>
      </g>
     </g>
    </g>
    <g id="xtick_13">
     <g id="line2d_27">
      <path clip-path="url(#pfd42014c0a)" d="M 619.479478 315.255625 
L 619.479478 21.935625 
" style="fill:none;stroke:#cccccc;stroke-linecap:round;stroke-width:0.8;"/>
     </g>
     <g id="text_25">
      <!-- 5 -->
      <g style="fill:#262626;" transform="translate(616.699009 329.413438)scale(0.1 -0.1)">
       <use xlink:href="#ArialMT-53"/>
      </g>
     </g>
    </g>
    <g id="xtick_14">
     <g id="line2d_28">
      <path clip-path="url(#pfd42014c0a)" d="M 664.157039 315.255625 
L 664.157039 21.935625 
" style="fill:none;stroke:#cccccc;stroke-linecap:round;stroke-width:0.8;"/>
     </g>
     <g id="text_26">
      <!-- 6 -->
      <g style="fill:#262626;" transform="translate(661.37657 329.413438)scale(0.1 -0.1)">
       <use xlink:href="#ArialMT-54"/>
      </g>
     </g>
    </g>
    <g id="text_27">
     <!-- Time (years) -->
     <g style="fill:#262626;" transform="translate(515.288125 342.680625)scale(0.1 -0.1)">
      <use xlink:href="#ArialMT-84"/>
      <use x="57.333984" xlink:href="#ArialMT-105"/>
      <use x="79.550781" xlink:href="#ArialMT-109"/>
      <use x="162.851562" xlink:href="#ArialMT-101"/>
      <use x="218.466797" xlink:href="#ArialMT-32"/>
      <use x="246.25" xlink:href="#ArialMT-40"/>
      <use x="279.550781" xlink:href="#ArialMT-121"/>
      <use x="329.550781" xlink:href="#ArialMT-101"/>
      <use x="385.166016" xlink:href="#ArialMT-97"/>
      <use x="440.78125" xlink:href="#ArialMT-114"/>
      <use x="474.082031" xlink:href="#ArialMT-115"/>
      <use x="524.082031" xlink:href="#ArialMT-41"/>
     </g>
    </g>
   </g>
   <g id="matplotlib.axis_4">
    <g id="ytick_6">
     <g id="line2d_29">
      <path clip-path="url(#pfd42014c0a)" d="M 381.385312 287.65857 
L 704.925313 287.65857 
" style="fill:none;stroke:#cccccc;stroke-linecap:round;stroke-width:0.8;"/>
     </g>
    </g>
    <g id="ytick_7">
     <g id="line2d_30">
      <path clip-path="url(#pfd42014c0a)" d="M 381.385312 230.707002 
L 704.925313 230.707002 
" style="fill:none;stroke:#cccccc;stroke-linecap:round;stroke-width:0.8;"/>
     </g>
    </g>
    <g id="ytick_8">
     <g id="line2d_31">
      <path clip-path="url(#pfd42014c0a)" d="M 381.385312 173.755435 
L 704.925313 173.755435 
" style="fill:none;stroke:#cccccc;stroke-linecap:round;stroke-width:0.8;"/>
     </g>
    </g>
    <g id="ytick_9">
     <g id="line2d_32">
      <path clip-path="url(#pfd42014c0a)" d="M 381.385312 116.803868 
L 704.925313 116.803868 
" style="fill:none;stroke:#cccccc;stroke-linecap:round;stroke-width:0.8;"/>
     </g>
    </g>
    <g id="ytick_10">
     <g id="line2d_33">
      <path clip-path="url(#pfd42014c0a)" d="M 381.385312 59.852301 
L 704.925313 59.852301 
" style="fill:none;stroke:#cccccc;stroke-linecap:round;stroke-width:0.8;"/>
     </g>
    </g>
   </g>
   <g id="PolyCollection_4">
    <defs>
     <path d="M 396.091676 -68.293709 
L 396.091676 -54.470129 
L 399.814806 -195.25281 
L 403.537936 -200.067205 
L 407.261066 -199.468283 
L 410.984196 -196.947652 
L 414.707326 -193.603363 
L 418.430456 -191.906327 
L 422.153586 -190.850994 
L 425.876716 -188.353605 
L 429.599846 -186.40328 
L 433.322976 -184.537706 
L 437.046107 -183.66741 
L 440.769237 -181.460492 
L 444.492367 -180.606851 
L 448.215497 -180.690112 
L 451.938627 -179.689764 
L 455.661757 -176.277678 
L 459.384887 -175.769932 
L 463.108017 -174.41774 
L 466.831147 -174.292804 
L 470.554277 -174.597774 
L 474.277407 -173.383169 
L 478.000537 -172.99182 
L 481.723667 -173.290104 
L 485.446797 -171.706169 
L 489.169927 -171.555478 
L 492.893057 -171.002073 
L 496.616187 -170.34561 
L 500.339317 -169.107696 
L 504.062447 -167.464879 
L 507.785577 -167.691805 
L 511.508707 -166.281303 
L 515.231837 -165.9843 
L 518.954967 -165.981296 
L 522.678097 -164.530726 
L 526.401227 -165.303124 
L 530.124357 -165.519372 
L 533.847487 -165.801943 
L 537.570617 -165.361384 
L 541.293747 -165.202653 
L 545.016878 -164.081671 
L 548.740008 -162.521188 
L 552.463138 -161.805597 
L 556.186268 -162.157881 
L 559.909398 -161.055196 
L 563.632528 -160.762873 
L 567.355658 -160.475186 
L 571.078788 -161.588864 
L 574.801918 -163.331274 
L 578.525048 -162.141294 
L 582.248178 -161.911075 
L 585.971308 -161.941474 
L 589.694438 -161.533435 
L 593.417568 -162.224454 
L 597.140698 -161.519287 
L 600.863828 -161.635043 
L 604.586958 -161.757264 
L 608.310088 -160.955079 
L 612.033218 -159.86563 
L 615.756348 -159.285464 
L 619.479478 -159.7296 
L 623.202608 -158.621679 
L 626.925738 -159.657974 
L 630.648868 -159.418746 
L 634.371998 -160.47693 
L 638.095128 -159.981157 
L 641.818258 -160.30056 
L 645.541388 -159.394772 
L 649.264518 -159.069685 
L 652.987649 -160.031927 
L 656.710779 -160.268827 
L 660.433909 -160.017089 
L 664.157039 -161.156211 
L 667.880169 -159.670913 
L 671.603299 -158.141496 
L 675.326429 -158.742667 
L 679.049559 -157.593867 
L 682.772689 -158.412961 
L 686.495819 -157.223071 
L 690.218949 -158.043426 
L 690.218949 -165.758638 
L 690.218949 -165.758638 
L 686.495819 -164.938477 
L 682.772689 -166.0452 
L 679.049559 -166.036657 
L 675.326429 -166.395048 
L 671.603299 -165.908736 
L 667.880169 -166.892486 
L 664.157039 -168.642399 
L 660.433909 -167.787508 
L 656.710779 -167.776814 
L 652.987649 -167.236164 
L 649.264518 -166.474907 
L 645.541388 -166.835337 
L 641.818258 -167.671627 
L 638.095128 -167.287802 
L 634.371998 -167.6496 
L 630.648868 -166.911259 
L 626.925738 -167.039704 
L 623.202608 -165.715187 
L 619.479478 -166.413258 
L 615.756348 -166.48714 
L 612.033218 -166.766394 
L 608.310088 -168.182751 
L 604.586958 -168.898712 
L 600.863828 -169.088784 
L 597.140698 -168.803891 
L 593.417568 -169.269712 
L 589.694438 -168.656854 
L 585.971308 -169.1558 
L 582.248178 -169.451608 
L 578.525048 -169.379387 
L 574.801918 -170.607958 
L 571.078788 -168.966316 
L 567.355658 -168.077971 
L 563.632528 -168.07742 
L 559.909398 -168.278297 
L 556.186268 -169.532029 
L 552.463138 -169.410044 
L 548.740008 -170.569529 
L 545.016878 -171.653216 
L 541.293747 -172.951135 
L 537.570617 -172.919459 
L 533.847487 -172.886758 
L 530.124357 -173.39831 
L 526.401227 -172.679774 
L 522.678097 -172.030242 
L 518.954967 -173.27049 
L 515.231837 -173.393605 
L 511.508707 -173.995507 
L 507.785577 -175.678699 
L 504.062447 -175.006945 
L 500.339317 -176.661711 
L 496.616187 -177.95276 
L 492.893057 -178.48463 
L 489.169927 -179.043387 
L 485.446797 -179.440328 
L 481.723667 -180.739329 
L 478.000537 -180.545929 
L 474.277407 -181.191991 
L 470.554277 -182.279948 
L 466.831147 -181.680474 
L 463.108017 -181.600519 
L 459.384887 -182.681238 
L 455.661757 -184.097568 
L 451.938627 -186.754782 
L 448.215497 -188.240046 
L 444.492367 -188.538177 
L 440.769237 -189.047066 
L 437.046107 -191.011767 
L 433.322976 -192.470609 
L 429.599846 -193.98144 
L 425.876716 -195.503743 
L 422.153586 -198.420558 
L 418.430456 -199.421648 
L 414.707326 -201.352225 
L 410.984196 -204.255755 
L 407.261066 -206.718056 
L 403.537936 -207.468105 
L 399.814806 -203.341983 
L 396.091676 -68.293709 
z
" id="m6cc92c6855" style="stroke:#1f77b4;stroke-opacity:0.2;"/>
    </defs>
    <g clip-path="url(#pfd42014c0a)">
     <use style="fill:#1f77b4;fill-opacity:0.2;stroke:#1f77b4;stroke-opacity:0.2;" x="0" xlink:href="#m6cc92c6855" y="351.985313"/>
    </g>
   </g>
   <g id="PolyCollection_5">
    <defs>
     <path d="M 396.091676 -67.956488 
L 396.091676 -52.505312 
L 399.814806 -238.995139 
L 403.537936 -254.44917 
L 407.261066 -257.90461 
L 410.984196 -260.477112 
L 414.707326 -263.387526 
L 418.430456 -265.694694 
L 422.153586 -268.522371 
L 425.876716 -269.546722 
L 429.599846 -271.85985 
L 433.322976 -274.058049 
L 437.046107 -275.505841 
L 440.769237 -277.439207 
L 444.492367 -277.264525 
L 448.215497 -279.550417 
L 451.938627 -280.41244 
L 455.661757 -280.153093 
L 459.384887 -280.613717 
L 463.108017 -281.784244 
L 466.831147 -282.896162 
L 470.554277 -283.024057 
L 474.277407 -285.270513 
L 478.000537 -285.413612 
L 481.723667 -287.046835 
L 485.446797 -285.901499 
L 489.169927 -287.279328 
L 492.893057 -288.106082 
L 496.616187 -288.291608 
L 500.339317 -288.720849 
L 504.062447 -288.997317 
L 507.785577 -288.232707 
L 511.508707 -288.66732 
L 515.231837 -289.171863 
L 518.954967 -290.195623 
L 522.678097 -290.749935 
L 526.401227 -290.618558 
L 530.124357 -291.935167 
L 533.847487 -291.277879 
L 537.570617 -292.719655 
L 541.293747 -291.824267 
L 545.016878 -293.178854 
L 548.740008 -293.749342 
L 552.463138 -294.079651 
L 556.186268 -295.673956 
L 559.909398 -294.016192 
L 563.632528 -294.902746 
L 567.355658 -297.158772 
L 571.078788 -297.462918 
L 574.801918 -298.61472 
L 578.525048 -298.463218 
L 582.248178 -298.735258 
L 585.971308 -298.032735 
L 589.694438 -297.284577 
L 593.417568 -297.178803 
L 597.140698 -297.921704 
L 600.863828 -298.888627 
L 604.586958 -298.042435 
L 608.310088 -296.825527 
L 612.033218 -298.964822 
L 615.756348 -298.53495 
L 619.479478 -298.369806 
L 623.202608 -298.200203 
L 626.925738 -297.967544 
L 630.648868 -297.236516 
L 634.371998 -298.283784 
L 638.095128 -299.179062 
L 641.818258 -299.487835 
L 645.541388 -299.951289 
L 649.264518 -299.733973 
L 652.987649 -301.73346 
L 656.710779 -300.224964 
L 660.433909 -300.079546 
L 664.157039 -299.984168 
L 667.880169 -300.09716 
L 671.603299 -299.835324 
L 675.326429 -299.465016 
L 679.049559 -300.062374 
L 682.772689 -299.3534 
L 686.495819 -301.036085 
L 690.218949 -300.900246 
L 690.218949 -308.097005 
L 690.218949 -308.097005 
L 686.495819 -307.901897 
L 682.772689 -306.336421 
L 679.049559 -307.165057 
L 675.326429 -306.437155 
L 671.603299 -306.578478 
L 667.880169 -307.110065 
L 664.157039 -306.93564 
L 660.433909 -306.970651 
L 656.710779 -307.090983 
L 652.987649 -308.485455 
L 649.264518 -306.482002 
L 645.541388 -306.963276 
L 641.818258 -306.163526 
L 638.095128 -305.689638 
L 634.371998 -305.066074 
L 630.648868 -304.088623 
L 626.925738 -304.774848 
L 623.202608 -304.637043 
L 619.479478 -305.132592 
L 615.756348 -305.276174 
L 612.033218 -305.723376 
L 608.310088 -303.926572 
L 604.586958 -305.180279 
L 600.863828 -305.911665 
L 597.140698 -304.931975 
L 593.417568 -305.014967 
L 589.694438 -305.167609 
L 585.971308 -305.406352 
L 582.248178 -305.522768 
L 578.525048 -305.432851 
L 574.801918 -305.80839 
L 571.078788 -304.50938 
L 567.355658 -303.90951 
L 563.632528 -301.943143 
L 559.909398 -300.897063 
L 556.186268 -302.777109 
L 552.463138 -300.765202 
L 548.740008 -300.475025 
L 545.016878 -300.518079 
L 541.293747 -299.265071 
L 537.570617 -300.199479 
L 533.847487 -298.706126 
L 530.124357 -299.010338 
L 526.401227 -297.593741 
L 522.678097 -298.04565 
L 518.954967 -297.503558 
L 515.231837 -296.682437 
L 511.508707 -296.326053 
L 507.785577 -295.668349 
L 504.062447 -296.167579 
L 500.339317 -295.893074 
L 496.616187 -295.605553 
L 492.893057 -295.438456 
L 489.169927 -294.706752 
L 485.446797 -294.053637 
L 481.723667 -294.194139 
L 478.000537 -292.301362 
L 474.277407 -291.873589 
L 470.554277 -290.495661 
L 466.831147 -290.264492 
L 463.108017 -289.165122 
L 459.384887 -288.185056 
L 455.661757 -288.145667 
L 451.938627 -288.418543 
L 448.215497 -287.438165 
L 444.492367 -285.316388 
L 440.769237 -284.961797 
L 437.046107 -283.338374 
L 433.322976 -282.126318 
L 429.599846 -279.557784 
L 425.876716 -277.797497 
L 422.153586 -276.440416 
L 418.430456 -273.544545 
L 414.707326 -271.356628 
L 410.984196 -268.303173 
L 407.261066 -266.108094 
L 403.537936 -262.043411 
L 399.814806 -247.448641 
L 396.091676 -67.956488 
z
" id="m3950a7bae2" style="stroke:#ff7f0e;stroke-opacity:0.2;"/>
    </defs>
    <g clip-path="url(#pfd42014c0a)">
     <use style="fill:#ff7f0e;fill-opacity:0.2;stroke:#ff7f0e;stroke-opacity:0.2;" x="0" xlink:href="#m3950a7bae2" y="351.985313"/>
    </g>
   </g>
   <g id="PolyCollection_6">
    <defs>
     <path d="M 396.091676 -65.148455 
L 396.091676 -50.062415 
L 399.814806 -220.144987 
L 403.537936 -229.159889 
L 407.261066 -231.222953 
L 410.984196 -231.894138 
L 414.707326 -231.442527 
L 418.430456 -231.287078 
L 422.153586 -231.054076 
L 425.876716 -231.303957 
L 429.599846 -230.586221 
L 433.322976 -230.266722 
L 437.046107 -229.660763 
L 440.769237 -230.021509 
L 444.492367 -229.669241 
L 448.215497 -228.971407 
L 451.938627 -229.391809 
L 455.661757 -229.945072 
L 459.384887 -229.366159 
L 463.108017 -229.745873 
L 466.831147 -230.220207 
L 470.554277 -230.205002 
L 474.277407 -230.586429 
L 478.000537 -231.744257 
L 481.723667 -232.222154 
L 485.446797 -231.83556 
L 489.169927 -233.145449 
L 492.893057 -233.399927 
L 496.616187 -231.626981 
L 500.339317 -232.403263 
L 504.062447 -231.787883 
L 507.785577 -231.069034 
L 511.508707 -232.222519 
L 515.231837 -230.965799 
L 518.954967 -231.27176 
L 522.678097 -231.698384 
L 526.401227 -230.738204 
L 530.124357 -231.498435 
L 533.847487 -230.217789 
L 537.570617 -231.028468 
L 541.293747 -232.224709 
L 545.016878 -231.818868 
L 548.740008 -231.424507 
L 552.463138 -232.54494 
L 556.186268 -233.598364 
L 559.909398 -233.310668 
L 563.632528 -233.112175 
L 567.355658 -233.49855 
L 571.078788 -231.938057 
L 574.801918 -232.017678 
L 578.525048 -231.448356 
L 582.248178 -230.518253 
L 585.971308 -230.731475 
L 589.694438 -231.25075 
L 593.417568 -231.825905 
L 597.140698 -232.763597 
L 600.863828 -232.647762 
L 604.586958 -231.655316 
L 608.310088 -231.591414 
L 612.033218 -230.590483 
L 615.756348 -230.889105 
L 619.479478 -231.526553 
L 623.202608 -229.620784 
L 626.925738 -230.751084 
L 630.648868 -231.43824 
L 634.371998 -230.9201 
L 638.095128 -231.016717 
L 641.818258 -230.421221 
L 645.541388 -229.033788 
L 649.264518 -230.269378 
L 652.987649 -231.006432 
L 656.710779 -230.555999 
L 660.433909 -230.917665 
L 664.157039 -231.263631 
L 667.880169 -231.659991 
L 671.603299 -231.700558 
L 675.326429 -232.045868 
L 679.049559 -230.073942 
L 682.772689 -230.032399 
L 686.495819 -229.905811 
L 690.218949 -228.753957 
L 690.218949 -236.090168 
L 690.218949 -236.090168 
L 686.495819 -237.354371 
L 682.772689 -237.26991 
L 679.049559 -237.770851 
L 675.326429 -239.310908 
L 671.603299 -239.071419 
L 667.880169 -238.324613 
L 664.157039 -238.335624 
L 660.433909 -238.33283 
L 656.710779 -237.797433 
L 652.987649 -237.81301 
L 649.264518 -237.492037 
L 645.541388 -236.356696 
L 641.818258 -237.684105 
L 638.095128 -238.313201 
L 634.371998 -238.156295 
L 630.648868 -238.571794 
L 626.925738 -238.081276 
L 623.202608 -237.280628 
L 619.479478 -238.924935 
L 615.756348 -238.219065 
L 612.033218 -237.837837 
L 608.310088 -239.38639 
L 604.586958 -238.838736 
L 600.863828 -239.718818 
L 597.140698 -240.036886 
L 593.417568 -239.071119 
L 589.694438 -238.181981 
L 585.971308 -238.408507 
L 582.248178 -238.446768 
L 578.525048 -238.939723 
L 574.801918 -239.281789 
L 571.078788 -239.45703 
L 567.355658 -240.821522 
L 563.632528 -240.385223 
L 559.909398 -240.485736 
L 556.186268 -240.772919 
L 552.463138 -239.670458 
L 548.740008 -238.877468 
L 545.016878 -239.347221 
L 541.293747 -239.872133 
L 537.570617 -238.316063 
L 533.847487 -237.420624 
L 530.124357 -238.467871 
L 526.401227 -238.242465 
L 522.678097 -239.018864 
L 518.954967 -238.629814 
L 515.231837 -238.592511 
L 511.508707 -238.933952 
L 507.785577 -238.622335 
L 504.062447 -239.004865 
L 500.339317 -239.194306 
L 496.616187 -239.286869 
L 492.893057 -240.586496 
L 489.169927 -240.277034 
L 485.446797 -239.392215 
L 481.723667 -239.425942 
L 478.000537 -239.150407 
L 474.277407 -237.7392 
L 470.554277 -237.557611 
L 466.831147 -236.989984 
L 463.108017 -237.434423 
L 459.384887 -236.86742 
L 455.661757 -237.004799 
L 451.938627 -236.546216 
L 448.215497 -236.306684 
L 444.492367 -236.939757 
L 440.769237 -237.787508 
L 437.046107 -237.486194 
L 433.322976 -237.741905 
L 429.599846 -237.930971 
L 425.876716 -238.380235 
L 422.153586 -238.376801 
L 418.430456 -238.571728 
L 414.707326 -238.554176 
L 410.984196 -239.254452 
L 407.261066 -238.589424 
L 403.537936 -236.262458 
L 399.814806 -227.526903 
L 396.091676 -65.148455 
z
" id="m6176f8ef31" style="stroke:#2ca02c;stroke-opacity:0.2;"/>
    </defs>
    <g clip-path="url(#pfd42014c0a)">
     <use style="fill:#2ca02c;fill-opacity:0.2;stroke:#2ca02c;stroke-opacity:0.2;" x="0" xlink:href="#m6176f8ef31" y="351.985313"/>
    </g>
   </g>
   <g id="line2d_34">
    <path clip-path="url(#pfd42014c0a)" d="M 396.091676 291.056862 
L 399.814806 152.634089 
L 403.537936 148.129879 
L 407.261066 149.04345 
L 410.984196 151.3692 
L 414.707326 154.644286 
L 418.430456 156.448555 
L 422.153586 157.393176 
L 425.876716 160.121101 
L 429.599846 161.515147 
L 433.322976 163.490285 
L 437.046107 164.736561 
L 440.769237 166.786787 
L 444.492367 167.411314 
L 448.215497 167.612741 
L 451.938627 168.739936 
L 455.661757 171.433446 
L 459.384887 172.736101 
L 463.108017 173.992964 
L 466.831147 174.133216 
L 470.554277 173.474077 
L 474.277407 174.838875 
L 478.000537 175.354969 
L 481.723667 175.138614 
L 485.446797 176.347103 
L 489.169927 176.730748 
L 492.893057 177.117004 
L 496.616187 177.981203 
L 500.339317 179.031356 
L 504.062447 180.687805 
L 507.785577 180.432663 
L 511.508707 181.91642 
L 515.231837 182.214708 
L 518.954967 182.402151 
L 522.678097 183.63988 
L 526.401227 183.06353 
L 530.124357 182.490445 
L 533.847487 182.683685 
L 537.570617 182.821168 
L 541.293747 182.829656 
L 545.016878 184.018443 
L 548.740008 185.394462 
L 552.463138 186.214164 
L 556.186268 186.100035 
L 559.909398 187.37394 
L 563.632528 187.62205 
L 567.355658 187.66486 
L 571.078788 186.489373 
L 574.801918 185.156341 
L 578.525048 186.235104 
L 582.248178 186.55817 
L 585.971308 186.531741 
L 589.694438 186.784345 
L 593.417568 186.173164 
L 597.140698 186.814561 
L 600.863828 186.724722 
L 604.586958 186.812034 
L 608.310088 187.455577 
L 612.033218 188.786435 
L 615.756348 189.149566 
L 619.479478 188.965607 
L 623.202608 189.887122 
L 626.925738 188.611118 
L 630.648868 188.768827 
L 634.371998 187.946624 
L 638.095128 188.444747 
L 641.818258 188.061513 
L 645.541388 188.972752 
L 649.264518 189.165662 
L 652.987649 188.531533 
L 656.710779 187.799491 
L 660.433909 188.207599 
L 664.157039 187.148179 
L 667.880169 188.687381 
L 671.603299 190.03248 
L 675.326429 189.361859 
L 679.049559 189.998714 
L 682.772689 189.857611 
L 686.495819 190.7651 
L 690.218949 190.045534 
" style="fill:none;stroke:#1f77b4;stroke-linecap:round;stroke-width:1.5;"/>
   </g>
   <g id="line2d_35">
    <path clip-path="url(#pfd42014c0a)" d="M 396.091676 291.750787 
L 399.814806 108.7693 
L 403.537936 93.648067 
L 407.261066 89.935683 
L 410.984196 87.756522 
L 414.707326 84.526809 
L 418.430456 82.24497 
L 422.153586 79.605435 
L 425.876716 78.214713 
L 429.599846 76.347782 
L 433.322976 73.931083 
L 437.046107 72.762367 
L 440.769237 70.74993 
L 444.492367 70.652436 
L 448.215497 68.361682 
L 451.938627 67.747246 
L 455.661757 68.067202 
L 459.384887 67.732468 
L 463.108017 66.624188 
L 466.831147 65.375049 
L 470.554277 65.379841 
L 474.277407 63.303168 
L 478.000537 63.232742 
L 481.723667 61.4995 
L 485.446797 62.029285 
L 489.169927 61.025328 
L 492.893057 60.467269 
L 496.616187 60.066496 
L 500.339317 59.684704 
L 504.062447 59.393985 
L 507.785577 59.993667 
L 511.508707 59.56289 
L 515.231837 58.960471 
L 518.954967 58.086859 
L 522.678097 57.685805 
L 526.401227 57.918048 
L 530.124357 56.551945 
L 533.847487 56.925154 
L 537.570617 55.554895 
L 541.293747 56.281072 
L 545.016878 55.30086 
L 548.740008 55.015328 
L 552.463138 54.472924 
L 556.186268 52.912079 
L 559.909398 54.478303 
L 563.632528 53.462572 
L 567.355658 51.608547 
L 571.078788 51.001251 
L 574.801918 49.796978 
L 578.525048 50.153454 
L 582.248178 49.81649 
L 585.971308 50.238869 
L 589.694438 50.925313 
L 593.417568 50.933732 
L 597.140698 50.405907 
L 600.863828 49.713585 
L 604.586958 50.427899 
L 608.310088 51.537608 
L 612.033218 49.732106 
L 615.756348 50.096196 
L 619.479478 50.214978 
L 623.202608 50.611829 
L 626.925738 50.560259 
L 630.648868 51.171491 
L 634.371998 50.388313 
L 638.095128 49.464025 
L 641.818258 49.212062 
L 645.541388 48.511133 
L 649.264518 48.796674 
L 652.987649 46.812682 
L 656.710779 48.207117 
L 660.433909 48.465699 
L 664.157039 48.642531 
L 667.880169 48.39539 
L 671.603299 48.586481 
L 675.326429 49.089288 
L 679.049559 48.452809 
L 682.772689 49.276076 
L 686.495819 47.551305 
L 690.218949 47.575655 
" style="fill:none;stroke:#ff7f0e;stroke-linecap:round;stroke-width:1.5;"/>
   </g>
   <g id="line2d_36">
    <path clip-path="url(#pfd42014c0a)" d="M 396.091676 294.034489 
L 399.814806 128.284401 
L 403.537936 119.519946 
L 407.261066 117.219314 
L 410.984196 116.569667 
L 414.707326 117.045236 
L 418.430456 117.134316 
L 422.153586 117.282562 
L 425.876716 117.206165 
L 429.599846 117.477646 
L 433.322976 118.027676 
L 437.046107 118.341391 
L 440.769237 118.029856 
L 444.492367 118.835377 
L 448.215497 119.411726 
L 451.938627 119.009299 
L 455.661757 118.658378 
L 459.384887 119.056455 
L 463.108017 118.518785 
L 466.831147 118.274194 
L 470.554277 118.082019 
L 474.277407 117.852105 
L 478.000537 116.309927 
L 481.723667 116.251212 
L 485.446797 116.388895 
L 489.169927 115.449277 
L 492.893057 114.826564 
L 496.616187 116.377848 
L 500.339317 116.281915 
L 504.062447 116.583682 
L 507.785577 116.771357 
L 511.508707 116.552363 
L 515.231837 117.231663 
L 518.954967 117.048255 
L 522.678097 116.696673 
L 526.401227 117.681224 
L 530.124357 117.175574 
L 533.847487 118.175041 
L 537.570617 117.234423 
L 541.293747 116.043133 
L 545.016878 116.397982 
L 548.740008 116.592308 
L 552.463138 115.874015 
L 556.186268 114.863182 
L 559.909398 114.973131 
L 563.632528 115.09082 
L 567.355658 114.907293 
L 571.078788 116.28938 
L 574.801918 116.402658 
L 578.525048 116.585555 
L 582.248178 117.483228 
L 585.971308 117.412122 
L 589.694438 117.317025 
L 593.417568 116.685139 
L 597.140698 115.669536 
L 600.863828 115.88422 
L 604.586958 117.005 
L 608.310088 116.384704 
L 612.033218 117.776223 
L 615.756348 117.398536 
L 619.479478 116.754432 
L 623.202608 118.484584 
L 626.925738 117.581791 
L 630.648868 116.992289 
L 634.371998 117.600715 
L 638.095128 117.15771 
L 641.818258 117.959274 
L 645.541388 119.260556 
L 649.264518 118.241464 
L 652.987649 117.604377 
L 656.710779 117.596015 
L 660.433909 117.497615 
L 664.157039 117.15733 
L 667.880169 116.940268 
L 671.603299 116.706712 
L 675.326429 116.096998 
L 679.049559 117.836309 
L 682.772689 118.217408 
L 686.495819 118.160211 
L 690.218949 119.461447 
" style="fill:none;stroke:#2ca02c;stroke-linecap:round;stroke-width:1.5;"/>
   </g>
   <g id="patch_7">
    <path d="M 381.385312 315.255625 
L 381.385312 21.935625 
" style="fill:none;stroke:#cccccc;stroke-linecap:square;stroke-linejoin:miter;stroke-width:0.8;"/>
   </g>
   <g id="patch_8">
    <path d="M 381.385312 315.255625 
L 704.925313 315.255625 
" style="fill:none;stroke:#cccccc;stroke-linecap:square;stroke-linejoin:miter;stroke-width:0.8;"/>
   </g>
   <g id="text_28">
    <!-- Peter hypothesis -->
    <g style="fill:#262626;" transform="translate(498.465625 15.935625)scale(0.12 -0.12)">
     <use xlink:href="#ArialMT-80"/>
     <use x="66.699219" xlink:href="#ArialMT-101"/>
     <use x="122.314453" xlink:href="#ArialMT-116"/>
     <use x="150.097656" xlink:href="#ArialMT-101"/>
     <use x="205.712891" xlink:href="#ArialMT-114"/>
     <use x="239.013672" xlink:href="#ArialMT-32"/>
     <use x="266.796875" xlink:href="#ArialMT-104"/>
     <use x="322.412109" xlink:href="#ArialMT-121"/>
     <use x="372.412109" xlink:href="#ArialMT-112"/>
     <use x="428.027344" xlink:href="#ArialMT-111"/>
     <use x="483.642578" xlink:href="#ArialMT-116"/>
     <use x="511.425781" xlink:href="#ArialMT-104"/>
     <use x="567.041016" xlink:href="#ArialMT-101"/>
     <use x="622.65625" xlink:href="#ArialMT-115"/>
     <use x="672.65625" xlink:href="#ArialMT-105"/>
     <use x="694.873047" xlink:href="#ArialMT-115"/>
    </g>
   </g>
  </g>
 </g>
 <defs>
  <clipPath id="p8178c48b91">
   <rect height="293.32" width="323.54" x="47.045313" y="21.935625"/>
  </clipPath>
  <clipPath id="pfd42014c0a">
   <rect height="293.32" width="323.54" x="381.385312" y="21.935625"/>
  </clipPath>
 </defs>
</svg>
